<?xml version="1.0" encoding="utf-8"?>
<!-- Generator: Adobe Illustrator 22.1.0, SVG Export Plug-In . SVG Version: 6.00 Build 0)  -->
<svg version="1.1" id="Layer_1" xmlns="http://www.w3.org/2000/svg" xmlns:xlink="http://www.w3.org/1999/xlink" x="0px" y="0px"
	 viewBox="0 0 100 100" style="enable-background:new 0 0 100 100;" xml:space="preserve">
<style type="text/css">
	.st0{fill:#E0AC7E;}
	.st1{fill:#3E4347;}
</style>
<g>
	<path class="st0" d="M36.8,49.1c0-9.3,8.9-12.8,13.2-12.8s13.2,3.5,13.2,12.8c0,11.8-4.8,14.6-13.2,14.6S36.8,60.9,36.8,49.1"/>
	<path class="st1" d="M54.3,60.5c0.1,0,0.1-0.2,0.1-0.3c0-0.7-2-1.4-4.5-1.4s-4.5,0.6-4.5,1.4c0,0.1,0,0.3,0.1,0.3H54.3"/>
	<path class="st1" d="M40.7,49.4c0-3.8,4.1-4.6,9.2-4.6s9.2,0.7,9.2,4.6c0,3.1-7.4,5.8-9.2,5.8S40.7,52.4,40.7,49.4"/>
</g>
</svg>
