<?xml version="1.0" encoding="utf-8"?>
<!-- Generator: Adobe Illustrator 22.1.0, SVG Export Plug-In . SVG Version: 6.00 Build 0)  -->
<svg version="1.1" id="Layer_1" xmlns="http://www.w3.org/2000/svg" xmlns:xlink="http://www.w3.org/1999/xlink" x="0px" y="0px"
	 viewBox="0 0 100 100" style="enable-background:new 0 0 100 100;" xml:space="preserve">
<style type="text/css">
	.st0{fill:#BFFFAB;}
	.st1{fill:#93E67F;}
	.st2{fill:#4C5359;}
</style>
<g>
	<path class="st0" d="M57.4,52c0,0-3.1,4.8-8.8,3.3s-6-7.2-6-7.2s3.1-4.8,8.8-3.3C57.2,46.3,57.4,52,57.4,52"/>
	<path class="st1" d="M56.8,49.5c0,0-2.7,3-6.5,3c-4.1,0-6.5-5.9-6.5-5.9s2.7-3.1,7.6-1.9C55.9,45.9,56.8,49.5,56.8,49.5"/>
	<path class="st2" d="M52.6,49.4c0,6.6-3.2,6.6-3.2,0C49.5,42.8,52.6,42.8,52.6,49.4"/>
</g>
</svg>
