<?xml version="1.0" encoding="utf-8"?>
<!-- Generator: Adobe Illustrator 22.1.0, SVG Export Plug-In . SVG Version: 6.00 Build 0)  -->
<svg version="1.1" id="Layer_1" xmlns="http://www.w3.org/2000/svg" xmlns:xlink="http://www.w3.org/1999/xlink" x="0px" y="0px"
	 viewBox="0 0 100 100" style="enable-background:new 0 0 100 100;" xml:space="preserve">
<style type="text/css">
	.st0{fill:#FF94A4;}
	.st1{fill:#4C5359;}
</style>
<g>
	<ellipse class="st0" cx="50" cy="54.2" rx="1.7" ry="2.5"/>
	<g>
		<path class="st1" d="M58.4,52.8c-1,0.6-2.1,0.8-3.1,0.8c-1.1-0.1-2.1-0.4-2.9-1.1c-0.8-0.6-1.4-1.5-1.6-2.6L50,45.3l-0.8,4.5
			c-0.2,1-0.8,1.9-1.6,2.6c-0.8,0.7-1.9,1-2.9,1.1c-1.1,0-2.2-0.2-3.1-0.8c-1-0.6-1.8-1.5-2.2-2.7c0.1,1.3,0.7,2.5,1.7,3.4
			s2.3,1.4,3.5,1.4c1.4,0.1,2.7-0.3,3.8-1.1c0.6-0.4,1.1-1,1.5-1.6c0.4,0.6,0.9,1.2,1.5,1.6c1.1,0.8,2.5,1.2,3.8,1.1
			c1.3-0.1,2.6-0.6,3.6-1.4c1-0.9,1.7-2.1,1.7-3.4C60.2,51.1,59.5,52.1,58.4,52.8"/>
		<path class="st1" d="M54,44.4c-0.8-1-3.3-1.1-4-1.1s-3.2,0.1-4,1.1c-0.6,0.7-0.1,2.5,1.4,4c1,1,1.9,1.3,2.6,1.3s1.7-0.3,2.6-1.3
			C54.1,46.8,54.6,45.2,54,44.4"/>
	</g>
</g>
</svg>
