<svg xmlns="http://www.w3.org/2000/svg" viewBox="0 0 100 100">
    <ellipse cx="50" cy="54.2" rx="1.7" ry="2.5" fill="#ff94a4"/>
    <g fill="#4c5359">
        <path d="M58.4 52.8c-1 .6-2.1.8-3.1.8-1.1-.1-2.1-.4-2.9-1.1-.8-.6-1.4-1.5-1.6-2.6l-.8-4.6-.8 4.5c-.2 1-.8 1.9-1.6 2.6-.8.7-1.9 1-2.9 1.1-1.1 0-2.2-.2-3.1-.8-1-.6-1.8-1.5-2.2-2.7.1 1.3.7 2.5 1.7 3.4s2.3 1.4 3.5 1.4c1.4.1 2.7-.3 3.8-1.1.6-.4 1.1-1 1.5-1.6.4.6.9 1.2 1.5 1.6 1.1.8 2.5 1.2 3.8 1.1 1.3-.1 2.6-.6 3.6-1.4 1-.9 1.7-2.1 1.7-3.4-.3 1.1-1 2.1-2.1 2.8"/>
        <path d="M54 44.4c-.8-1-3.3-1.1-4-1.1s-3.2.1-4 1.1c-.6.7-.1 2.5 1.4 4 1 1 1.9 1.3 2.6 1.3s1.7-.3 2.6-1.3c1.5-1.6 2-3.2 1.4-4"/>
    </g>
</svg>
