<?xml version="1.0" encoding="utf-8"?>
<!-- Generator: Adobe Illustrator 12.0.0, SVG Export Plug-In . SVG Version: 6.00 Build 51448)  -->
<!DOCTYPE svg PUBLIC "-//W3C//DTD SVG 1.1//EN" "http://www.w3.org/Graphics/SVG/1.1/DTD/svg11.dtd" [
        <!ENTITY ns_svg "http://www.w3.org/2000/svg">
        <!ENTITY ns_xlink "http://www.w3.org/1999/xlink">
        ]>
<svg  version="1.1" id="Layer_1" xmlns="&ns_svg;" xmlns:xlink="&ns_xlink;" width="100" height="100"
	 viewBox="0 0 100 100" overflow="visible" enable-background="new 0 0 181.172 226.771" xml:space="preserve">
<g transform="scale(0.5) translate(30, -50)">
	<path fill="#BF0000" stroke="#FF0000" stroke-width="3.7458" d="M57.622,147.615c-8.452,7.246-16.172,22.693-15.612,33.866
		c0.615,12.329,15.703,17.25,22.272,6.161c1.906,9.081,10.495,20.534,19.54,11.244c7.899-8.113,8.68-25.469,5.867-35.673
		c-1.939-7.055-4.658-11.845-11.813-13.348c-5.353-1.124-15.425-3.987-20.444-1.781"/>
	<path fill="#FF7F00" stroke="#8F0000" stroke-width="3.8972" d="M82.95,148.341c0,10.655-11.521,19.294-25.728,19.294
		c-6.117,0-25.778-12.293-29.625-4.885c-4.274-19.007,11.184-33.707,29.625-33.707C71.429,129.043,82.95,137.687,82.95,148.341z"/>
</g>
</svg>
