<?xml version="1.0" encoding="utf-8"?>
<!-- Generator: Adobe Illustrator 12.0.0, SVG Export Plug-In . SVG Version: 6.00 Build 51448)  -->
<!DOCTYPE svg PUBLIC "-//W3C//DTD SVG 1.1//EN" "http://www.w3.org/Graphics/SVG/1.1/DTD/svg11.dtd" [
        <!ENTITY ns_svg "http://www.w3.org/2000/svg">
        <!ENTITY ns_xlink "http://www.w3.org/1999/xlink">
        ]>
<svg  version="1.1" id="Layer_1" xmlns="&ns_svg;" xmlns:xlink="&ns_xlink;" width="100" height="100"
	 viewBox="0 0 100 100" overflow="visible" enable-background="new 0 0 181.172 226.771" xml:space="preserve">
<g transform="scale(0.5) translate(12 -30)">
	<path fill="#FFFFFF" d="M167.078,125.534c0,45.216-36.093,81.865-80.619,81.865c-44.529,0-80.624-36.649-80.624-81.865
		c0-45.209,36.095-81.86,80.624-81.86C130.985,43.674,167.078,80.325,167.078,125.534z"/>
	<path fill="#B2B2B2" d="M167.078,125.541c0,6.512-1.971,12.993-1.454,19.311c0.34,4.149,2.295,8.367,2.97,12.511
		c1.162,7.147,2.15,18.554-8.247,18.059c7.018,8.784-2.223,12.209-9.177,14.712c-5.439,1.957-4.425,1.434-7.439,4.914
		c-2.692,3.11-2.978,5.331-6.756,7.731c-6.675,4.254-16.273,4.916-23.429,8.047c-7.788,3.411-15.079,6.253-21.454-0.395
		c-10.275,5.839-22.07,11.372-28.708-1.267c-4.651,0.367-7.896,2.048-12.562-0.058c-5.485-2.478-6.642-9.234-10.746-12.675
		c-4.327-3.636-7.941-0.304-12.84-3.496c-3.989-2.602-3.49-7.656-6.79-10.352c-2.728-2.229-7.002-1.229-9.902-3.355
		c-6.178-4.525-4.622-13.504-0.148-18.78c5.104,5.076,9.076,10.368,15.075,14.33c0.898,0.594,18.257,8.188,17.255,4.639
		c2.77,9.821,12.168,6.87,18.833,2.599c1.072,2.71,1.415,5.747,1.419,8.601c15.832,11.064,35.2,10.383,53.077,3.043
		c11.479-4.714,22.27-12.799,27.191-24.611c5.085-12.2-4.294-18.364-3.514-29.26c0.305-4.266,5.519-9.137,7.142-13.41
		c2.005-5.272,2.99-11.09,2.309-16.718c-2.553-21.061-28.662-50.522-51.633-45.869c-14.228,2.885-24.229,15.288-32.639,26.21
		c1.294-1.684,0.867-8.268,1.553-10.618c1.275-4.37,3.494-8.409,5.89-12.254c4.606-7.38,11.045-16.469,19.201-20.229
		c19.535-9.016,43.869,11.105,55.668,24.807C160.03,86.582,167.078,105.933,167.078,125.541z"/>
	<path fill="none" stroke="#000000" stroke-width="5.2623" d="M167.078,125.534c0,12.231-0.365,19.774,2.646,31.584
		c0.848,3.334,2.709,8.135,1.451,11.575c-0.447,1.207-7.189,7.879-7.583,5.393c1.325,8.346,1.58,13.645-7.98,16.468
		c-3.817,1.126-6.495,0.297-8.86,2.595c-2.438,2.377-1.515,6.67-5.389,9.423c-5.086,3.617-11.699,2.96-17.08,4.506
		c-5.42,1.562-3.219,1.79-7.433,4.248c-5.763,3.368-20.473,10.552-24.914,1.704c-6.418,5.758-15.356,9.596-23.452,3.874
		c-2.82-1.988-3.433-5.401-6.599-6.618c-1.857-0.711-5.963,1.108-9.203-0.205c-4.989-2.022-7.219-7.005-11.062-9.781
		c-2.974-2.14-2.388-1.728-6.088-2.909c-8.885-2.825-16.599-4.391-15.651-16.819c-12.606,0.695-14.459-6.17-12.897-16.834
		c1.994-13.61-1.147-24.474-1.147-38.202c0-45.209,36.095-81.86,80.624-81.86C130.985,43.674,167.078,80.325,167.078,125.534z"/>
</g>
</svg>
