<?xml version="1.0" encoding="utf-8"?>
<!-- Generator: Adobe Illustrator 12.0.0, SVG Export Plug-In . SVG Version: 6.00 Build 51448)  -->
<!DOCTYPE svg PUBLIC "-//W3C//DTD SVG 1.1//EN" "http://www.w3.org/Graphics/SVG/1.1/DTD/svg11.dtd" [
        <!ENTITY ns_svg "http://www.w3.org/2000/svg">
        <!ENTITY ns_xlink "http://www.w3.org/1999/xlink">
        ]>
<svg  version="1.1" id="Layer_1" xmlns="&ns_svg;" xmlns:xlink="&ns_xlink;" width="100" height="100"
	 viewBox="0 0 100 100" overflow="visible" enable-background="new 0 0 181.172 226.771" xml:space="preserve">
<g transform="scale(0.5) translate(20 40)">
	<path fill="#BF0000" stroke="#FF0000" stroke-width="4.3232" d="M66.319,86.867c-1.607-5.372,8.329-18.885,11.252-22.576
		c8.851-11.167,32.092-17.763,45.01-11.307c5.687-8.558,7.228-22.115-1.192-29.482c-0.02-0.017-19.512-17.052-36.824,0.824
		c0,0-12.096-23.813-31.98-14.394c0,0-20.218,13.758-7.989,31.728c-1.419-2.083-13.85,7.829-14.905,9.2
		c-3.777,4.895-4.939,11.498-3.737,17.443c2.502,12.384,10.973,21.437,23.939,14.952c0,0,14.015,30.043,13.958,11.453
		C63.796,78.432,66.315,86.859,66.319,86.867z"/>
</g>
</svg>
