<svg xmlns="http://www.w3.org/2000/svg" viewBox="0 0 100 100">
    <path d="M52.3 57.3c.5 4.9-2.5 6.5-5.5 6.5s-6.6-3.6-4.8-8.3c2.5-5.8 7-9.5 7-9.5s2.8 5.9 3.3 11.3" fill="#e24b4b"/>
    <path d="M47.7 55.4c-.5 4.9 2.5 6.5 5.5 6.5s6.6-3.6 4.8-8.3c-2.5-5.9-7-9.6-7-9.6s-2.8 6-3.3 11.4" fill="#e24b4b"/>
    <path d="M41.5 45.5h17c0 4.4-3.8 7.9-8.5 7.9s-8.5-3.6-8.5-7.9" fill="#e08828"/>
    <path d="M60.6 46L50 48.1 39.4 46c0-5.4 4.7-9.8 10.6-9.8 5.8 0 10.6 4.4 10.6 9.8" fill="#f29a2e"/>
    <path d="M53.7 38.3c.6.6.8 1.2.5 1.5-.3.3-1 .1-1.6-.5-.6-.6-.8-1.2-.5-1.5.3-.3 1-.1 1.6.5m-7.4 0c-.6.6-.8 1.2-.5 1.5.3.3 1 .1 1.6-.5.6-.6.8-1.2.5-1.5-.3-.3-1-.1-1.6.5" fill="#3e4347"/>
</svg>
