<svg xmlns="http://www.w3.org/2000/svg" viewBox="0 0 100 100">
    <path d="M61.7 68.9c3 .5 6.6-.5 10.4-3.9 5.2-4.5 8.3-10 7.8-17.4-.2-2.9-1.3-4.8-2.6-6-1-.9-7.1 1.2-7.1 7.8.1 12.6-8.5 19.5-8.5 19.5" fill="#947151"/>
    <path d="M70.8 50.6c0-6 3-8.5 6.5-9-3.3-3.4-9.2 2.3-9.2 7.5 0 12.6-5.2 13.7-8.1 19.4 0 0 .5.3 1.6.3 3.7-3 9.2-8.6 9.2-18.2" fill="#231f20"/>
    <path d="M69.2 49.5c0-6 3.5-8.6 7.1-8.7-3.8-2.3-9.4 1-9.4 7.3C66.9 58.4 60 63 60 63v5.4c1.6-1.1 9.2-7.6 9.2-18.9" fill="#ffe8bb"/>
    <g fill="#5e4433">
        <path d="M28.6 50.1s-7.4.5-8.4-1.6c-1.4-3 5.9-4.6 8.4-3.4v5M47.7 70.5s-10.8.5-10.8-1S41.8 65 47.7 65v5.5"/>
    </g>
    <path d="M59.7 68.8c2.9-4.3 3.5-12.9 1.4-18.1-1.7-4.2-6.2-9.3-12.8-12.1-16.5-7.2-22.5 3.7-15 9.2 8.8 6.5 8 16.9 11.4 21.2-3.6.9-6.2 2.8-6.2 3.9 0 1.5 10.8 1 10.8 1 6 0 10.8-1.2 10.8-2.7.1-1.1-.1-1.8-.4-2.4" fill="#947151"/>
    <path d="M49.5 57.9c0-3.7 1.6-6.9 4.1-8.9-5.2.4-9.9 5.2-9.9 11.1.1 5.3 3.4 8 2.3 8.4-8.8 3.1 1.2.8 8.2 2.6 2.2.6-4.7-7.1-4.7-13.2" fill="#ffe8bb"/>
    <path d="M64.1 53.2c0-6.9-9.6-15-15.7-16.9-2.2-.7-4.2-1.2-6-1.5.2.8.3 1.7.4 2.5C55.1 40.4 67 52.9 59.7 68.8c3.5-5 4.4-9.2 4.4-15.6" fill="#231f20"/>
    <path d="M49.4 34.9c-2.7-.7-5.1-1-7.4-1 .4.6.6 1.4.7 2.2 10.5 2.9 20.5 9.6 20.5 21.5 0 2.7-1.6 8.7-3.6 11.3 3.9-2.8 6.1-9.4 6.1-15.7.1-10-7.4-15.9-16.3-18.3" fill="#ffe8bb"/>
    <path d="M37.9 31.7l-5.6.6c-.3-3.1 2.3-5.9 2.3-5.9s3 2.2 3.3 5.3" fill="#5e4433"/>
    <path d="M40.4 32.2c.3-3.1-2.2-6.2-2.2-6.2s-3.2 2.2-3.6 5.3c-5.4.2-11.4 7.5-10.9 13.3.1 1.6 4.4 4.6 9.8 4.6s9.8-4.8 9.8-10.7c.1-3.5-1-5.4-2.9-6.3" fill="#947151"/>
    <path d="M39.5 33.3c-.5 4.3-1.4 4.1-2.6 3.9s-2.1-.2-1.6-4.5c.3-2.3 2.6-3.9 2.6-3.9s1.8 2.2 1.6 4.5" fill="#f4a19a"/>
    <path d="M34 39.4s-1.5 1.9-3.3 1.9-2.6-1.9-2.6-1.9.8-3.5 2.6-3.5 3.3 3.5 3.3 3.5" fill="#ffe8bb"/>
    <path d="M32.6 39.2s-.9 1.2-2 1.2-1.6-1.2-1.6-1.2.5-2.1 1.6-2.1 2 2.1 2 2.1" fill="#231f20"/>
    <path d="M43.7 39.5c-1.8.6-4.5-.5-4.5-.5-2.4-3-3.7 1-3.7 1l1.1.4-2 .9.5.5h-1l.6.5-.4.3c-.7-.4-1.4-.6-2.2-.6-2.6 0-4.8 2.3-4.8 5.2s2.1 5.2 4.8 5.2c2.6 0 4.8-2.3 4.8-5.2v-.3l1.8.5-.4-1.4h2.1l-.9-.8 3-2.3h-1.8l2.8-1.7h-2.1c1 .1 4.2-2.4 2.3-1.7" fill="#ffe8bb"/>
    <path d="M43.7 54.4c.1 2.3-5.4 9-13.3-1.3 0 0-7.4.5-8.4-1.6-1.4-3 7.1-4.8 9.3-3.4 5.2 3.2 12.2-3 12.4 6.3" fill="#947151"/>
</svg>
