<?xml version="1.0" encoding="utf-8"?>
<!-- Generator: Adobe Illustrator 22.1.0, SVG Export Plug-In . SVG Version: 6.00 Build 0)  -->
<svg version="1.1" id="Layer_1" xmlns="http://www.w3.org/2000/svg" xmlns:xlink="http://www.w3.org/1999/xlink" x="0px" y="0px"
	 viewBox="0 0 100 100" style="enable-background:new 0 0 100 100;" xml:space="preserve">
<style type="text/css">
	.st0{fill:#947151;}
	.st1{fill:#231F20;}
	.st2{fill:#FFE8BB;}
	.st3{fill:#5E4433;}
	.st4{fill:#F4A19A;}
</style>
<g>
	<path class="st0" d="M61.7,68.9c3,0.5,6.6-0.5,10.4-3.9c5.2-4.5,8.3-10,7.8-17.4c-0.2-2.9-1.3-4.8-2.6-6c-1-0.9-7.1,1.2-7.1,7.8
		C70.3,62,61.7,68.9,61.7,68.9"/>
	<path class="st1" d="M70.8,50.6c0-6,3-8.5,6.5-9c-3.3-3.4-9.2,2.3-9.2,7.5c0,12.6-5.2,13.7-8.1,19.4c0,0,0.5,0.3,1.6,0.3
		C65.3,65.8,70.8,60.2,70.8,50.6"/>
	<path class="st2" d="M69.2,49.5c0-6,3.5-8.6,7.1-8.7c-3.8-2.3-9.4,1-9.4,7.3C66.9,58.4,60,63,60,63v5.4
		C61.6,67.3,69.2,60.8,69.2,49.5"/>
	<g>
		<path class="st3" d="M28.6,50.1c0,0-7.4,0.5-8.4-1.6c-1.4-3,5.9-4.6,8.4-3.4V50.1"/>
		<path class="st3" d="M47.7,70.5c0,0-10.8,0.5-10.8-1S41.8,65,47.7,65V70.5"/>
	</g>
	<path class="st0" d="M59.7,68.8c2.9-4.3,3.5-12.9,1.4-18.1c-1.7-4.2-6.2-9.3-12.8-12.1c-16.5-7.2-22.5,3.7-15,9.2
		c8.8,6.5,8,16.9,11.4,21.2c-3.6,0.9-6.2,2.8-6.2,3.9c0,1.5,10.8,1,10.8,1c6,0,10.8-1.2,10.8-2.7C60.2,70.1,60,69.4,59.7,68.8"/>
	<path class="st2" d="M49.5,57.9c0-3.7,1.6-6.9,4.1-8.9c-5.2,0.4-9.9,5.2-9.9,11.1c0.1,5.3,3.4,8,2.3,8.4c-8.8,3.1,1.2,0.8,8.2,2.6
		C56.4,71.7,49.5,64,49.5,57.9"/>
	<path class="st1" d="M64.1,53.2c0-6.9-9.6-15-15.7-16.9c-2.2-0.7-4.2-1.2-6-1.5c0.2,0.8,0.3,1.7,0.4,2.5
		C55.1,40.4,67,52.9,59.7,68.8C63.2,63.8,64.1,59.6,64.1,53.2"/>
	<path class="st2" d="M49.4,34.9c-2.7-0.7-5.1-1-7.4-1c0.4,0.6,0.6,1.4,0.7,2.2c10.5,2.9,20.5,9.6,20.5,21.5c0,2.7-1.6,8.7-3.6,11.3
		c3.9-2.8,6.1-9.4,6.1-15.7C65.8,43.2,58.3,37.3,49.4,34.9"/>
	<path class="st3" d="M37.9,31.7l-5.6,0.6c-0.3-3.1,2.3-5.9,2.3-5.9S37.6,28.6,37.9,31.7"/>
	<path class="st0" d="M40.4,32.2c0.3-3.1-2.2-6.2-2.2-6.2s-3.2,2.2-3.6,5.3c-5.4,0.2-11.4,7.5-10.9,13.3c0.1,1.6,4.4,4.6,9.8,4.6
		s9.8-4.8,9.8-10.7C43.4,35,42.3,33.1,40.4,32.2"/>
	<path class="st4" d="M39.5,33.3c-0.5,4.3-1.4,4.1-2.6,3.9s-2.1-0.2-1.6-4.5c0.3-2.3,2.6-3.9,2.6-3.9S39.7,31,39.5,33.3"/>
	<path class="st2" d="M34,39.4c0,0-1.5,1.9-3.3,1.9s-2.6-1.9-2.6-1.9s0.8-3.5,2.6-3.5S34,39.4,34,39.4"/>
	<path class="st1" d="M32.6,39.2c0,0-0.9,1.2-2,1.2S29,39.2,29,39.2s0.5-2.1,1.6-2.1S32.6,39.2,32.6,39.2"/>
	<path class="st2" d="M43.7,39.5c-1.8,0.6-4.5-0.5-4.5-0.5c-2.4-3-3.7,1-3.7,1l1.1,0.4l-2,0.9l0.5,0.5h-1l0.6,0.5l-0.4,0.3
		c-0.7-0.4-1.4-0.6-2.2-0.6c-2.6,0-4.8,2.3-4.8,5.2s2.1,5.2,4.8,5.2c2.6,0,4.8-2.3,4.8-5.2c0-0.1,0-0.2,0-0.3l1.8,0.5L38.3,46h2.1
		l-0.9-0.8l3-2.3h-1.8l2.8-1.7c0,0-1.5,0-2.1,0C42.4,41.3,45.6,38.8,43.7,39.5"/>
	<path class="st0" d="M43.7,54.4c0.1,2.3-5.4,9-13.3-1.3c0,0-7.4,0.5-8.4-1.6c-1.4-3,7.1-4.8,9.3-3.4C36.5,51.3,43.5,45.1,43.7,54.4
		"/>
</g>
</svg>
