<?xml version="1.0" encoding="utf-8"?>
<!-- Generator: Adobe Illustrator 22.1.0, SVG Export Plug-In . SVG Version: 6.00 Build 0)  -->
<svg version="1.1" id="Layer_1" xmlns="http://www.w3.org/2000/svg" xmlns:xlink="http://www.w3.org/1999/xlink" x="0px" y="0px"
	 viewBox="0 0 100 100" style="enable-background:new 0 0 100 100;" xml:space="preserve">
<style type="text/css">
	.st0{fill:#664E27;}
</style>
<path class="st0" d="M48.1,46.8c0-2.4,5.3-1.3,7,0.4c1-1.7,0.5-3.2,0.5-3.2s-1.5-1.1-3.8-1.5v-2.2c-1.8-0.6-3.8,0-3.8,0v2.1
	c0,0-3.6,0.7-3.6,4.4c0,4.9,7.4,3.9,7.4,7c0,2.3-5,1.3-7.4-0.5c-0.8,1.8,0,3.4,0,3.4c1.8,0.8,3.6,1,3.6,1v2c0,0,2,0.6,3.8,0v-2.1
	c0,0,4.2-0.2,4.2-3.8C56.1,49.1,48.1,49.5,48.1,46.8"/>
</svg>
