<svg xmlns="http://www.w3.org/2000/svg" viewBox="0 0 100 100">
    <path d="M71.4 52.4c-7.6-9.1-19.5-10.3-30.6-21.1-6.7-6.5-18.5 6.4-15.3 12.6 4.3 8.2 14.2 23.9 23.1 30.8 19.1 14.7 38.2-3.9 22.8-22.3" fill="#7a2d77"/>
    <path d="M28 45.9c2.2-2.6 1.6-6.9 1.6-6.9s1.7 2 4.2 2l.2-4.4s3.8-.1 7.1-3.8l-11.2-.4-3.9 6.4 2 7.1" opacity=".15"/>
    <g fill="#83b730">
        <path d="M28.9 30.5l-.9 1.6c-2.4-1.6-5.8-6-2.4-12.1l1.5 1c-3.1 5.5 1.3 9.1 1.8 9.5"/>
        <path d="M35.2 34.2c3.8.4 7.3-2.6 7.3-2.6s-2.6-3.6-6.5-4c-3.8-.4-7.1.7-7.3 2.5-.2 1.9 2.7 3.7 6.5 4.1M23.1 38.2c-.5 4 2 7.5 2 7.5s3.2-2.9 3.7-6.9-.4-7.3-2-7.5c-1.6-.1-3.2 3-3.7 6.9"/>
    </g>
    <path d="M26.7 36c2.5 3.5 7.9 3.5 7.9 3.5s1.2-5.7-1.3-9.3c-2.5-3.5-6.1-5.1-7.9-3.5-1.9 1.6-1.3 5.7 1.3 9.3" fill="#8cc63e"/>
</svg>
