<?xml version="1.0" encoding="utf-8"?>
<!-- Generator: Adobe Illustrator 22.1.0, SVG Export Plug-In . SVG Version: 6.00 Build 0)  -->
<svg version="1.1" id="Layer_1" xmlns="http://www.w3.org/2000/svg" xmlns:xlink="http://www.w3.org/1999/xlink" x="0px" y="0px"
	 viewBox="0 0 100 100" style="enable-background:new 0 0 100 100;" xml:space="preserve">
<style type="text/css">
	.st0{fill:#FFFFFF;}
	.st1{fill:#664E27;}
</style>
<g>
	<path class="st0" d="M50,58.8c6.1,0,11-4.9,11-11c0-1.6-0.4-3.2-1-4.6c-2.8-1.3-6.3-2-10-2s-7.2,0.8-10,2c-0.6,1.4-1,2.9-1,4.6
		C39,53.9,43.9,58.8,50,58.8"/>
	<path class="st1" d="M50.5,41.2c-0.5,0.7-0.8,1.6-0.8,2.5c0,2.5,2,4.5,4.5,4.5s4.5-2,4.5-4.5c0-0.4-0.1-0.7-0.1-1
		C56.2,41.8,53.4,41.2,50.5,41.2"/>
</g>
</svg>
