<?xml version="1.0" encoding="utf-8"?>
<!-- Generator: Adobe Illustrator 22.1.0, SVG Export Plug-In . SVG Version: 6.00 Build 0)  -->
<svg version="1.1" id="Layer_1" xmlns="http://www.w3.org/2000/svg" xmlns:xlink="http://www.w3.org/1999/xlink" x="0px" y="0px"
	 viewBox="0 0 100 100" style="enable-background:new 0 0 100 100;" xml:space="preserve">
<style type="text/css">
	.st0{fill:#FFFFFF;}
	.st1{fill:#664E27;}
</style>
<g>
	<path class="st0" d="M50,56.4c-4.1,0-7.5-3.4-7.5-7.5c0-1.7,0.6-3.3,1.5-4.5c1.7-0.5,3.6-0.7,5.6-0.7c2.4,0,4.7,0.4,6.7,1.1
		c0.8,1.2,1.3,2.6,1.3,4.2C57.4,53.1,54,56.4,50,56.4"/>
	<path class="st1" d="M51,43.7c0.4,0.6,0.7,1.3,0.7,2.1c0,2.1-1.7,3.8-3.8,3.8s-3.8-1.7-3.8-3.8c0-0.6,0.1-1.1,0.4-1.6
		c1.5-0.4,3.2-0.6,5-0.6C50.1,43.7,50.5,43.7,51,43.7"/>
</g>
</svg>
