<?xml version="1.0" encoding="utf-8"?>
<!-- Generator: Adobe Illustrator 22.1.0, SVG Export Plug-In . SVG Version: 6.00 Build 0)  -->
<svg version="1.1" id="Layer_1" xmlns="http://www.w3.org/2000/svg" xmlns:xlink="http://www.w3.org/1999/xlink" x="0px" y="0px"
	 viewBox="0 0 100 100" style="enable-background:new 0 0 100 100;" xml:space="preserve">
<style type="text/css">
	.st0{fill:#FFFFFF;}
	.st1{fill:#494949;}
	.st2{fill:#664E27;}
</style>
<g>
	<circle class="st0" cx="35" cy="50" r="11"/>
	<circle class="st0" cx="65" cy="50" r="11"/>
	<path class="st1" d="M54,47c-1.8-1.3-6.2-1.3-8,0c-1.1-1-0.9-2.1-2-3.1c3.1-2.3,8.4-2.7,12,0C54.9,44.9,55.1,46,54,47"/>
	<path class="st1" d="M65,37c-7.2,0-13,5.8-13,13s5.8,13,13,13s13-5.8,13-13S72.2,37,65,37 M65,60c-5.5,0-10-4.5-10-10s4.5-10,10-10
		s10,4.5,10,10S70.5,60,65,60"/>
	<path class="st1" d="M35,37c-7.2,0-13,5.8-13,13s5.8,13,13,13s13-5.8,13-13S42.2,37,35,37 M35,60c-5.5,0-10-4.5-10-10s4.5-10,10-10
		s10,4.5,10,10S40.5,60,35,60"/>
	<ellipse class="st2" cx="38" cy="50.5" rx="4" ry="5"/>
	<ellipse class="st2" cx="62" cy="50.5" rx="4" ry="5"/>
</g>
</svg>
