<svg xmlns="http://www.w3.org/2000/svg" viewBox="0 0 100 100">
    <circle cx="35" cy="50" r="11" fill="#fff"/>
    <circle cx="65" cy="50" r="11" fill="#fff"/>
    <path d="M54 47c-1.8-1.3-6.2-1.3-8 0-1.1-1-.9-2.1-2-3.1 3.1-2.3 8.4-2.7 12 0-1.1 1-.9 2.1-2 3.1" fill="#494949"/>
    <path d="M65 37c-7.2 0-13 5.8-13 13s5.8 13 13 13 13-5.8 13-13-5.8-13-13-13m0 23c-5.5 0-10-4.5-10-10s4.5-10 10-10 10 4.5 10 10-4.5 10-10 10M35 37c-7.2 0-13 5.8-13 13s5.8 13 13 13 13-5.8 13-13-5.8-13-13-13m0 23c-5.5 0-10-4.5-10-10s4.5-10 10-10 10 4.5 10 10-4.5 10-10 10" fill="#494949"/>
    <ellipse cx="38" cy="50.5" rx="4" ry="5" fill="#664e27"/>
    <ellipse cx="62" cy="50.5" rx="4" ry="5" fill="#664e27"/>
</svg>
