<svg xmlns="http://www.w3.org/2000/svg" viewBox="0 0 100 100">
    <path d="M60.7 46.8s1.8-.6 1.1-3c-.7-2.5-6.9 0-10-1.2 0 0 2.5-.8 1.7-2.9-.8-1.9-7.6-2.6-14.3 2.6S36.8 59.5 45.1 61c5.8 1 14.6.9 15.7-1.6.9-2-1.9-2.7-1.9-2.7s3.5 0 3.5-2.7c0-1.6-1.3-1.6-1.3-1.6S64 52 64 49.3c.1-2.3-3.3-2.5-3.3-2.5" fill="#fff"/>
    <path d="M61.9 46.9c2.2-1.5.3-5.1-2.4-4.7-2.3.4-6.3.4-6.3.4s1.3-.5 1-2.2-2.7-4.2-12.3-.3c-3.6 1.5-5.9 4.5-6.3 8.2-.4 4 1.4 8.7 4.3 10.8 3.2 2.4 10.7 3.8 17.9 2.4 4.8-.9 4.3-4 2.3-4.5 3.3-.6 3.6-3.4 2-4.2 3.7-1.2 2.7-5.8-.2-5.9M59.3 52c-1.9.2-7 .6-7 .6s3.5.7 7.2.1c3.3-.5 3.1 2.8-1.5 3.4-2.2.3-5.7.4-5.7.4s3.2.5 4.9.3c4.4-.6 3.9 2.7-.2 3.3-7.3 1-13.2 0-16.1-2.1-4.1-3-6.5-13 1.5-16.7 3.6-1.7 9.5-3.2 10.4-1.2 1.2 2.9-4.2 3.2-4.2 3.2s4.4.6 10.7-.1c1.7-.2 3 1.9.9 3.1-1.8 1.1-7.9 1.5-7.9 1.5s3.3.1 7.9-.3c3.7-.3 4 3.9-.9 4.5" fill="#cccfd4"/>
</svg>
