<svg xmlns="http://www.w3.org/2000/svg" viewBox="0 0 100 100">
    <path d="M39.3 46.8s-1.8-.6-1.1-3c.7-2.5 6.9 0 10-1.2 0 0-2.5-.8-1.7-2.9.8-1.9 7.6-2.6 14.3 2.6s2.4 17.2-5.9 18.7c-5.8 1-14.6.9-15.7-1.6-.9-2 1.9-2.7 1.9-2.7s-3.5 0-3.5-2.7c0-1.6 1.3-1.6 1.3-1.6S36 52 36 49.3c-.1-2.3 3.3-2.5 3.3-2.5" fill="#fff"/>
    <path d="M38.1 46.9c-2.2-1.5-.3-5.1 2.4-4.7 2.3.4 6.3.4 6.3.4s-1.3-.5-1-2.2 2.7-4.2 12.3-.3c3.6 1.5 5.9 4.5 6.3 8.2.4 4-1.4 8.7-4.3 10.8-3.2 2.4-10.7 3.8-17.9 2.4-4.8-.9-4.3-4-2.3-4.5-3.3-.6-3.6-3.4-2-4.2-3.7-1.2-2.7-5.8.2-5.9m2.6 5.1c1.9.2 7 .6 7 .6s-3.5.7-7.2.1c-3.3-.5-3.1 2.8 1.5 3.4 2.2.3 5.7.4 5.7.4s-3.2.5-4.9.3c-4.4-.6-3.9 2.7.2 3.3 7.3 1 13.2 0 16.1-2.1 4.1-3 6.5-13-1.5-16.7-3.6-1.7-9.5-3.2-10.4-1.2-1.2 2.9 4.2 3.2 4.2 3.2s-4.4.6-10.7-.1c-1.7-.2-3 1.9-.9 3.1 1.8 1.1 7.9 1.5 7.9 1.5s-3.3.1-7.9-.3c-3.7-.3-4 3.9.9 4.5" fill="#cccfd4"/>
</svg>
