<?xml version="1.0" encoding="utf-8"?>
<!-- Generator: Adobe Illustrator 22.1.0, SVG Export Plug-In . SVG Version: 6.00 Build 0)  -->
<svg version="1.1" id="Layer_1" xmlns="http://www.w3.org/2000/svg" xmlns:xlink="http://www.w3.org/1999/xlink" x="0px" y="0px"
	 viewBox="0 0 100 100" style="enable-background:new 0 0 100 100;" xml:space="preserve">
<style type="text/css">
	.st0{fill:#FFFFFF;}
	.st1{fill:#CCCFD4;}
</style>
<g>
	<path class="st0" d="M39.3,46.8c0,0-1.8-0.6-1.1-3c0.7-2.5,6.9,0,10-1.2c0,0-2.5-0.8-1.7-2.9c0.8-1.9,7.6-2.6,14.3,2.6
		s2.4,17.2-5.9,18.7c-5.8,1-14.6,0.9-15.7-1.6c-0.9-2,1.9-2.7,1.9-2.7s-3.5,0-3.5-2.7c0-1.6,1.3-1.6,1.3-1.6S36,52,36,49.3
		C35.9,47,39.3,46.8,39.3,46.8"/>
	<path class="st1" d="M38.1,46.9c-2.2-1.5-0.3-5.1,2.4-4.7c2.3,0.4,6.3,0.4,6.3,0.4s-1.3-0.5-1-2.2s2.7-4.2,12.3-0.3
		c3.6,1.5,5.9,4.5,6.3,8.2c0.4,4-1.4,8.7-4.3,10.8c-3.2,2.4-10.7,3.8-17.9,2.4c-4.8-0.9-4.3-4-2.3-4.5c-3.3-0.6-3.6-3.4-2-4.2
		C34.2,51.6,35.2,47,38.1,46.9 M40.7,52c1.9,0.2,7,0.6,7,0.6s-3.5,0.7-7.2,0.1c-3.3-0.5-3.1,2.8,1.5,3.4c2.2,0.3,5.7,0.4,5.7,0.4
		s-3.2,0.5-4.9,0.3c-4.4-0.6-3.9,2.7,0.2,3.3c7.3,1,13.2,0,16.1-2.1c4.1-3,6.5-13-1.5-16.7c-3.6-1.7-9.5-3.2-10.4-1.2
		c-1.2,2.9,4.2,3.2,4.2,3.2s-4.4,0.6-10.7-0.1c-1.7-0.2-3,1.9-0.9,3.1c1.8,1.1,7.9,1.5,7.9,1.5s-3.3,0.1-7.9-0.3
		C36.1,47.2,35.8,51.4,40.7,52"/>
</g>
</svg>
