<?xml version="1.0" encoding="utf-8"?>
<!-- Generator: Adobe Illustrator 22.1.0, SVG Export Plug-In . SVG Version: 6.00 Build 0)  -->
<svg version="1.1" id="Layer_1" xmlns="http://www.w3.org/2000/svg" xmlns:xlink="http://www.w3.org/1999/xlink" x="0px" y="0px"
	 viewBox="0 0 100 100" style="enable-background:new 0 0 100 100;" xml:space="preserve">
<style type="text/css">
	.st0{fill:#FFFFFF;}
	.st1{fill:#CCCFD4;}
</style>
<g>
	<path class="st0" d="M60.6,45.9c-4.2,1-14.9,2.3-16.8,0.3c-0.9-0.9-0.7-2.2-0.4-4.5s-1.9-4.7-3.5-4.9c-1.9-0.2-3,1.2-2.3,3.2
		c1.4,4.5-1.4,5.9-1.6,9.2c-0.1,1.9-0.7,5.1,2.2,9.2c3.3,4.6,9,4.7,11,4.6c2.3-0.1,3.3-0.2,3.8-1.2c0.6-1.2,0.3-1.5,0.6-1.9
		c0.5-0.9,0.8-0.8,1.1-1.9c0.3-1.1-0.5-1.8-0.3-2.3c0.4-1.2,1.4-1,0.4-3.8c3.4-0.5,5.6-1,7.6-2.2C66.1,47.7,62.9,45.4,60.6,45.9"/>
	<path class="st1" d="M45.5,63.6c-3.4-0.6-6.2-2.3-8-4.8c-2.8-3.9-2.6-7-2.4-9.1c0-0.2,0-0.5,0-0.7c0.1-1.4,0.5-2.5,1-3.6
		c0.7-1.6,1.3-2.9,0.5-5.3c-0.4-1.2-0.3-2.4,0.5-3.2c0.7-0.7,1.7-1.1,2.9-0.9h0.1c2.1,0.4,4.5,3.2,4.2,5.9c-0.3,2.2-0.4,3.2,0.2,3.8
		c0.1,0.1,0.4,0.4,1.5,0.5c3.8,0.7,11.3-0.4,14.4-1.1c0.5-0.1,1.1-0.1,1.7,0c1.5,0.3,2.6,1.2,2.9,2.3c0.1,0.7,0.1,2-2,3.2
		c-2,1.1-4.1,1.7-7,2.1c0.8,2-1.1,2.7-0.7,3.5c0.5,1.1,0.4,2-0.7,3.1c-0.8,0.7,0.2,1.6-0.6,3c-0.9,1.5-2.4,1.6-4.6,1.7
		C47.9,63.9,46.7,63.9,45.5,63.6 M37.9,39.1c0.7,3.3,0.9,4.5-0.3,7.2c-1.8,3.6-2.5,13.8,8.2,15.7c6.5,1.2,7.5-0.4,7.2-2.1
		c-0.2-1.1,0.7-1.5,1-1.9c0.7-1.2-0.3-1.8-0.3-2.3c0-0.9,0.9-0.9,1.1-1.8c0.3-1.6-1.7-2.2,0-2.3c3.3-0.2,5.5-0.8,7.4-2.1
		c1.8-1.2,0.5-3.7-1.9-3.2c-5.6,1.2-14,2.6-16.8,0c-1.3-1.2-0.3-2.6-0.4-5.3C42.9,37.4,37.2,36,37.9,39.1"/>
</g>
</svg>
