<?xml version="1.0" encoding="utf-8"?>
<!-- Generator: Adobe Illustrator 22.1.0, SVG Export Plug-In . SVG Version: 6.00 Build 0)  -->
<svg version="1.1" id="Layer_1" xmlns="http://www.w3.org/2000/svg" xmlns:xlink="http://www.w3.org/1999/xlink" x="0px" y="0px"
	 viewBox="0 0 100 100" style="enable-background:new 0 0 100 100;" xml:space="preserve">
<style type="text/css">
	.st0{fill:#FFFFFF;}
	.st1{fill:#CCCFD4;}
</style>
<g>
	<path class="st0" d="M60.7,46.8c0,0,1.8-0.6,1.1-3c-0.7-2.5-6.9,0-10-1.2c0,0,2.5-0.8,1.7-2.9c-0.8-1.9-7.6-2.6-14.3,2.6
		S36.8,59.5,45.1,61c5.8,1,14.6,0.9,15.7-1.6c0.9-2-1.9-2.7-1.9-2.7s3.5,0,3.5-2.7c0-1.6-1.3-1.6-1.3-1.6S64,52,64,49.3
		C64.1,47,60.7,46.8,60.7,46.8"/>
	<path class="st1" d="M61.9,46.9c2.2-1.5,0.3-5.1-2.4-4.7c-2.3,0.4-6.3,0.4-6.3,0.4s1.3-0.5,1-2.2s-2.7-4.2-12.3-0.3
		c-3.6,1.5-5.9,4.5-6.3,8.2c-0.4,4,1.4,8.7,4.3,10.8c3.2,2.4,10.7,3.8,17.9,2.4c4.8-0.9,4.3-4,2.3-4.5c3.3-0.6,3.6-3.4,2-4.2
		C65.8,51.6,64.8,47,61.9,46.9 M59.3,52c-1.9,0.2-7,0.6-7,0.6s3.5,0.7,7.2,0.1c3.3-0.5,3.1,2.8-1.5,3.4c-2.2,0.3-5.7,0.4-5.7,0.4
		s3.2,0.5,4.9,0.3c4.4-0.6,3.9,2.7-0.2,3.3c-7.3,1-13.2,0-16.1-2.1c-4.1-3-6.5-13,1.5-16.7c3.6-1.7,9.5-3.2,10.4-1.2
		c1.2,2.9-4.2,3.2-4.2,3.2s4.4,0.6,10.7-0.1c1.7-0.2,3,1.9,0.9,3.1c-1.8,1.1-7.9,1.5-7.9,1.5s3.3,0.1,7.9-0.3
		C63.9,47.2,64.2,51.4,59.3,52"/>
</g>
</svg>
