<svg xmlns="http://www.w3.org/2000/svg" viewBox="0 0 100 100">
    <path d="M36.2 52.5c1-2.5 4.3-3.8 7.3-3 1.6.4 2.8 1.3 3.4 2.4 7.8-1.5 15-15.4 15-15.4s-.2 11.3-5.9 17.9c1.2-.4 2.5-.4 3.9-.1 3.1.8 4.7 3.5 3.7 5.9-1 2.5-4.3 3.8-7.3 3-.2-.1-.4-.1-.6-.2-1.6 3.1-5.9 4.7-10 3.7-4.3-1.1-6.6-4.8-5.2-8.2-.2 0-.4-.1-.6-.1-3-.7-4.7-3.4-3.7-5.9" fill="#d8d8d8"/>
    <path d="M38.6 50c.9-2.6 3.9-4.1 6.8-3.2 1.4.4 2.5 1.4 3.1 2.6C55.7 47.8 62.3 33 62.3 33s-.2 12.1-5.4 19.2c1.1-.4 2.3-.4 3.5-.1 2.8.9 4.4 3.7 3.4 6.3-.9 2.6-3.9 4.1-6.8 3.2-.2-.1-.4-.1-.6-.2-1.5 3.3-5.5 5.1-9.2 3.9-3.8-1.1-5.9-5.1-4.6-8.8-.2 0-.4-.1-.6-.1-2.8-.9-4.4-3.7-3.4-6.4" fill="#fff"/>
</svg>
