<?xml version="1.0" encoding="utf-8"?>
<!-- Generator: Adobe Illustrator 22.1.0, SVG Export Plug-In . SVG Version: 6.00 Build 0)  -->
<svg version="1.1" id="Layer_1" xmlns="http://www.w3.org/2000/svg" xmlns:xlink="http://www.w3.org/1999/xlink" x="0px" y="0px"
	 viewBox="0 0 100 100" style="enable-background:new 0 0 100 100;" xml:space="preserve">
<style type="text/css">
	.st0{fill:#D8D8D8;}
	.st1{fill:#FFFFFF;}
</style>
<g>
	<path class="st0" d="M36.2,52.5c1-2.5,4.3-3.8,7.3-3c1.6,0.4,2.8,1.3,3.4,2.4c7.8-1.5,15-15.4,15-15.4S61.7,47.8,56,54.4
		c1.2-0.4,2.5-0.4,3.9-0.1c3.1,0.8,4.7,3.5,3.7,5.9c-1,2.5-4.3,3.8-7.3,3c-0.2-0.1-0.4-0.1-0.6-0.2c-1.6,3.1-5.9,4.7-10,3.7
		c-4.3-1.1-6.6-4.8-5.2-8.2c-0.2,0-0.4-0.1-0.6-0.1C36.9,57.7,35.2,55,36.2,52.5"/>
	<path class="st1" d="M38.6,50c0.9-2.6,3.9-4.1,6.8-3.2c1.4,0.4,2.5,1.4,3.1,2.6C55.7,47.8,62.3,33,62.3,33s-0.2,12.1-5.4,19.2
		c1.1-0.4,2.3-0.4,3.5-0.1c2.8,0.9,4.4,3.7,3.4,6.3c-0.9,2.6-3.9,4.1-6.8,3.2c-0.2-0.1-0.4-0.1-0.6-0.2c-1.5,3.3-5.5,5.1-9.2,3.9
		c-3.8-1.1-5.9-5.1-4.6-8.8c-0.2,0-0.4-0.1-0.6-0.1C39.2,55.5,37.6,52.7,38.6,50"/>
</g>
</svg>
