<svg xmlns="http://www.w3.org/2000/svg" viewBox="0 0 100 100">
    <path d="M28.9 21.3S22.8 36.5 20 59.4c-.2 2 4.5.2 6.1-.4C29.8 36.5 35 21 35 21c-1.5-.2-6.1.3-6.1.3m26.4 1.6c2.2 3.5 1.2 9.1-.1 14.6-2.2 8.9-7.3 18.1-15.5 18.1-7.8 0-8.6-8.5-6.5-17.1 1.3-5.2 3.3-10.6 6.5-14.2 2.4-2.7 5.7-4.3 9-4.3s5.5.6 6.6 2.9M39.4 38.6c-1.8 7.3-.9 10.9 1.9 10.9 3 0 5.9-4.6 7.7-12.2 1.7-7.2.9-10.5-2-10.5-2.7 0-5.7 4-7.6 11.8M78.7 23c2.2 3.5 1.2 9.1-.1 14.6-2.2 8.9-7.2 18.1-15.5 18.1-7.8 0-8.6-8.5-6.5-17.1 1.3-5.2 3.3-10.6 6.5-14.2 2.4-2.7 5.8-4.4 9.1-4.4 3.2 0 5.4.6 6.5 3M62.9 38.6c-1.8 7.3-.9 10.9 1.9 10.9 3 0 5.9-4.6 7.7-12.2 1.7-7.2.9-10.5-2-10.5-2.7 0-5.7 4-7.6 11.8m2.7 28c-5.4 0-33.3 2.2-44.4 3.1-.8-2.9.2-5.4 1.5-6.6 5.5-1 42.3-3.9 45.1-2.3-.4 2-1.3 4.5-2.2 5.8m-4.7 11.2C55.4 77.8 38 79 26.7 80c-.8-3.2.2-6 1.5-7.4 5.7-1.2 32.1-3.1 34.9-1.3-.4 2.3-1.2 5.1-2.2 6.5" fill="#ff5a79"/>
</svg>
