<?xml version="1.0" encoding="utf-8"?>
<!-- Generator: Adobe Illustrator 22.1.0, SVG Export Plug-In . SVG Version: 6.00 Build 0)  -->
<svg version="1.1" id="Layer_1" xmlns="http://www.w3.org/2000/svg" xmlns:xlink="http://www.w3.org/1999/xlink" x="0px" y="0px"
	 viewBox="0 0 100 100" style="enable-background:new 0 0 100 100;" xml:space="preserve">
<style type="text/css">
	.st0{fill:#FF5A79;}
</style>
<g>
	<path class="st0" d="M28.9,21.3c0,0-6.1,15.2-8.9,38.1c-0.2,2,4.5,0.2,6.1-0.4C29.8,36.5,35,21,35,21
		C33.5,20.8,28.9,21.3,28.9,21.3"/>
	<path class="st0" d="M55.3,22.9c2.2,3.5,1.2,9.1-0.1,14.6c-2.2,8.9-7.3,18.1-15.5,18.1c-7.8,0-8.6-8.5-6.5-17.1
		c1.3-5.2,3.3-10.6,6.5-14.2c2.4-2.7,5.7-4.3,9-4.3S54.2,20.6,55.3,22.9 M39.4,38.6c-1.8,7.3-0.9,10.9,1.9,10.9
		c3,0,5.9-4.6,7.7-12.2c1.7-7.2,0.9-10.5-2-10.5C44.3,26.8,41.3,30.8,39.4,38.6"/>
	<path class="st0" d="M78.7,23c2.2,3.5,1.2,9.1-0.1,14.6c-2.2,8.9-7.2,18.1-15.5,18.1c-7.8,0-8.6-8.5-6.5-17.1
		c1.3-5.2,3.3-10.6,6.5-14.2c2.4-2.7,5.8-4.4,9.1-4.4C75.4,20,77.6,20.6,78.7,23 M62.9,38.6c-1.8,7.3-0.9,10.9,1.9,10.9
		c3,0,5.9-4.6,7.7-12.2c1.7-7.2,0.9-10.5-2-10.5C67.8,26.8,64.8,30.8,62.9,38.6"/>
	<path class="st0" d="M65.6,66.6c-5.4,0-33.3,2.2-44.4,3.1c-0.8-2.9,0.2-5.4,1.5-6.6c5.5-1,42.3-3.9,45.1-2.3
		C67.4,62.8,66.5,65.3,65.6,66.6"/>
	<path class="st0" d="M60.9,77.8C55.4,77.8,38,79,26.7,80c-0.8-3.2,0.2-6,1.5-7.4c5.7-1.2,32.1-3.1,34.9-1.3
		C62.7,73.6,61.9,76.4,60.9,77.8"/>
</g>
</svg>
