<?xml version="1.0" encoding="utf-8"?>
<!-- Generator: Adobe Illustrator 22.1.0, SVG Export Plug-In . SVG Version: 6.00 Build 0)  -->
<svg version="1.1" id="Layer_1" xmlns="http://www.w3.org/2000/svg" xmlns:xlink="http://www.w3.org/1999/xlink" x="0px" y="0px"
	 viewBox="0 0 100 100" style="enable-background:new 0 0 100 100;" xml:space="preserve">
<style type="text/css">
	.st0{fill:#FFE8A6;}
	.st1{fill:#F4DC9F;}
</style>
<g>
	<circle class="st0" cx="50" cy="50" r="30"/>
	<g>
		<circle class="st1" cx="68" cy="53.2" r="7"/>
		<circle class="st1" cx="36.1" cy="57" r="6"/>
		<circle class="st1" cx="42.2" cy="68" r="9"/>
		<circle class="st1" cx="42" cy="35.2" r="4"/>
		<circle class="st1" cx="55" cy="36.2" r="4"/>
		<circle class="st1" cx="30.1" cy="43.9" r="4"/>
		<circle class="st1" cx="57" cy="27.2" r="2"/>
		<circle class="st1" cx="26.1" cy="57" r="2"/>
		<circle class="st1" cx="70" cy="68" r="2"/>
		<circle class="st1" cx="43" cy="47.9" r="3"/>
		<circle class="st1" cx="33" cy="33.7" r="2"/>
		<circle class="st1" cx="64" cy="70.6" r="4"/>
		<path class="st1" d="M42.2,28.8c0,2.8,2.2,5,5,5s5-2.2,5-5s-2.2-5-5-5C44.4,23.7,42.2,26,42.2,28.8"/>
	</g>
</g>
</svg>
