<svg xmlns="http://www.w3.org/2000/svg" viewBox="0 0 100 100">
    <circle cx="50" cy="50" r="30" fill="#3e4347"/>
    <g fill="#464d51">
        <circle cx="68" cy="53.2" r="7"/>
        <circle cx="36.1" cy="57" r="6"/>
        <circle cx="42.2" cy="68" r="9"/>
        <circle cx="42" cy="35.2" r="4"/>
        <circle cx="55" cy="36.2" r="4"/>
        <circle cx="30.1" cy="43.9" r="4"/>
        <circle cx="57" cy="27.2" r="2"/>
        <circle cx="26.1" cy="57" r="2"/>
        <circle cx="70" cy="68" r="2"/>
        <circle cx="43" cy="47.9" r="3"/>
        <circle cx="33" cy="33.7" r="2"/>
        <circle cx="64" cy="70.6" r="4"/>
        <path d="M42.2 28.8c0 2.8 2.2 5 5 5s5-2.2 5-5-2.2-5-5-5c-2.8-.1-5 2.2-5 5"/>
    </g>
</svg>
