<?xml version="1.0" encoding="utf-8"?>
<!-- Generator: Adobe Illustrator 22.1.0, SVG Export Plug-In . SVG Version: 6.00 Build 0)  -->
<svg version="1.1" id="Layer_1" xmlns="http://www.w3.org/2000/svg" xmlns:xlink="http://www.w3.org/1999/xlink" x="0px" y="0px"
	 viewBox="0 0 100 100" style="enable-background:new 0 0 100 100;" xml:space="preserve">
<style type="text/css">
	.st0{fill:#664E27;}
	.st1{fill:#FF717F;}
	.st2{fill:#E2596C;}
</style>
<g>
	<path class="st0" d="M65.9,38c-3.3,0-9.7,0-15.9,0s-12.6,0-15.9,0c-0.7,0-1.1,0.5-1.1,1c0,7.3,6,15,17,15s17-7.7,17-15
		C67,38.5,66.6,38,65.9,38"/>
	<path class="st1" d="M59.2,44c-2.3,0-9.2,0-9.2,0s-6.9,0-9.2,0c-0.7,0-0.8,0.3-0.8,0.8c0,0.9,0,2.4,0,4C40,57.6,44.5,62,50,62
		s10-4.4,10-13.2c0-1.6,0-3.1,0-4C60,44.3,59.9,44,59.2,44"/>
	<path class="st2" d="M51.5,44L50,57.8L48.5,44H51.5z"/>
</g>
</svg>
