<svg xmlns="http://www.w3.org/2000/svg" viewBox="0 0 100 100">
    <path d="M65.9 38H34.1c-.7 0-1.1.5-1.1 1 0 7.3 6 15 17 15s17-7.7 17-15c0-.5-.4-1-1.1-1" fill="#664e27"/>
    <path d="M59.2 44H40.8c-.7 0-.8.3-.8.8v4C40 57.6 44.5 62 50 62s10-4.4 10-13.2v-4c0-.5-.1-.8-.8-.8" fill="#74e063"/>
    <g fill="#449636">
        <path d="M48.7 49.5c0-1.6 3.3-.8 4.4.3.7-1.1.3-2.1.3-2.1s-1-.7-2.4-1v-1.5c-1.1-.4-2.4 0-2.4 0v1.4s-2.3.4-2.3 2.9c0 3.2 4.7 2.5 4.7 4.6 0 1.5-3.1.9-4.7-.3-.5 1.2 0 2.2 0 2.2 1.1.5 2.3.7 2.3.7V58s1.2.4 2.4 0v-1.4s2.6-.2 2.6-2.5c.2-3.1-4.9-2.8-4.9-4.6"/>
        <path d="M57.6 44v3.5c0 8.3-3 12-7.6 12s-7.6-3.6-7.6-12V44h-.8v3.5c0 8.9 3.3 12.9 8.4 12.9s8.4-4 8.4-12.9V44h-.8"/>
    </g>
</svg>
