<?xml version="1.0" encoding="utf-8"?>
<!-- Generator: Adobe Illustrator 22.1.0, SVG Export Plug-In . SVG Version: 6.00 Build 0)  -->
<svg version="1.1" id="Layer_1" xmlns="http://www.w3.org/2000/svg" xmlns:xlink="http://www.w3.org/1999/xlink" x="0px" y="0px"
	 viewBox="0 0 100 100" style="enable-background:new 0 0 100 100;" xml:space="preserve">
<style type="text/css">
	.st0{fill:#664E27;}
</style>
<path class="st0" d="M64.5,46.6C64,46,63,45.8,62.3,46.3l-4.2,2.8c-0.7,0.5-1.8,0.4-2.4-0.1l-4.6-3.9c-0.6-0.5-1.6-0.5-2.3,0
	L44.2,49c-0.6,0.5-1.7,0.6-2.4,0.1l-4.3-2.8c-0.7-0.5-1.7-0.3-2.2,0.3l-4.4,5.2c-0.5,0.6-0.4,0.8,0.3,0.4l3.8-2.1
	c0.7-0.4,1.8-0.3,2.4,0.3l4.6,4.5c0.6,0.6,1.6,0.6,2.3,0.1l4.5-3.4c0.7-0.5,1.7-0.5,2.4,0l4.4,3.4c0.7,0.5,1.7,0.4,2.3-0.1l4.6-4.5
	c0.6-0.6,1.7-0.7,2.4-0.3l3.8,2.1c0.7,0.4,0.9,0.2,0.3-0.4L64.5,46.6"/>
</svg>
