<?xml version="1.0" encoding="utf-8"?>
<!-- Generator: Adobe Illustrator 22.1.0, SVG Export Plug-In . SVG Version: 6.00 Build 0)  -->
<svg version="1.1" id="Layer_1" xmlns="http://www.w3.org/2000/svg" xmlns:xlink="http://www.w3.org/1999/xlink" x="0px" y="0px"
	 viewBox="0 0 100 100" style="enable-background:new 0 0 100 100;" xml:space="preserve">
<style type="text/css">
	.st0{fill:#664E27;}
	.st1{fill:#FFFFFF;}
</style>
<g>
	<path class="st0" d="M67,44.4c0-0.8-0.5-1.8-1.8-2.1C61.7,41.6,56.6,41,50,41s-11.7,0.7-15.2,1.3c-1.3,0.3-1.8,1.3-1.8,2.1
		C33,51.7,38.6,59,50,59S67,51.7,67,44.4"/>
	<path class="st1" d="M62.7,44.7c-2.2-0.4-6.8-1-12.7-1s-10.5,0.6-12.7,1c-1.3,0.2-1.4,0.7-1.3,1.5c0.1,0.4,0.1,1,0.3,1.6
		c0.1,0.6,0.3,0.9,1.3,0.8c1.9-0.2,23-0.2,24.9,0c1,0.1,1.1-0.2,1.3-0.8c0.1-0.6,0.2-1.1,0.3-1.6C64.1,45.4,64,44.9,62.7,44.7"/>
</g>
</svg>
