<svg xmlns="http://www.w3.org/2000/svg" viewBox="0 0 100 100">
    <path d="M72 45.4c0-.8-.6-1.8-2.4-2.1C65.2 42.7 58.5 42 50 42s-15.2.7-19.6 1.3c-1.7.3-2.4 1.3-2.4 2.1C28 55 31.5 58 45.8 58h8.4C68.5 58 72 55 72 45.4" fill="#664e27"/>
    <path d="M66.9 46.2c.2-.5-.1-1-.5-1.1 0 0-7.4-1.1-16.4-1.1s-16.4 1.1-16.4 1.1c-.5.1-.7.6-.5 1.1l1.1 2.9c.2.5.8.9 1.3.9h29.1c.5 0 1.1-.4 1.3-.9l1-2.9M50 56c6.4 0 15.5 0 15.2-2.1 0-.4-.1-.8-.3-1.3s-.3-.7-1.4-.7H36.4c-1.1 0-1.2.1-1.4.7-.1.5-.2.9-.3 1.3C34.5 56 43.6 56 50 56" fill="#fff"/>
</svg>
