<svg xmlns="http://www.w3.org/2000/svg" viewBox="0 0 100 100">
    <path d="M67.7 40.4c-.4-.5-1.1-.4-1.9-.4H34.2c-.8 0-1.5-.1-1.9.4C28.4 45.4 33 60 50 60s21.6-14.6 17.7-19.6" fill="#664e27"/>
    <path d="M51.8 47.7c-.6 0-1.5.5-1.1 2 .2.7 1.2 1.6 1.2 2.8 0 2.4-3.8 2.4-3.8 0 0-1.2 1-2 1.2-2.8.3-1.4-.6-2-1.1-2-1.6 0-4.1 1.7-4.1 4.6 0 3.2 2.7 5.8 6 5.8s6-2.6 6-5.8c-.1-2.8-2.7-4.5-4.3-4.6" fill="#4c3526"/>
    <path d="M42.3 56.7c2.2 1 4.8 1.5 7.7 1.5s5.5-.6 7.7-1.5C55.6 55.6 53 55 50 55s-5.6.6-7.7 1.7" fill="#ff717f"/>
    <path d="M65 42H35.1c-2.1 0-2.1 4-.1 4h30c2 0 2-4 0-4" fill="#fff"/>
</svg>
