<?xml version="1.0" encoding="utf-8"?>
<!-- Generator: Adobe Illustrator 22.1.0, SVG Export Plug-In . SVG Version: 6.00 Build 0)  -->
<svg version="1.1" id="Layer_1" xmlns="http://www.w3.org/2000/svg" xmlns:xlink="http://www.w3.org/1999/xlink" x="0px" y="0px"
	 viewBox="0 0 100 100" style="enable-background:new 0 0 100 100;" xml:space="preserve">
<style type="text/css">
	.st0{fill:#664E27;}
	.st1{fill:#74E063;}
	.st2{fill:#449636;}
</style>
<g>
	<path class="st0" d="M65.9,38c-3.3,0-9.7,0-15.9,0s-12.6,0-15.9,0c-0.7,0-1.1,0.5-1.1,1c0,7.3,6,15,17,15s17-7.7,17-15
		C67,38.5,66.6,38,65.9,38"/>
	<path class="st1" d="M59.2,44c-2.3,0-9.2,0-9.2,0s-6.9,0-9.2,0c-0.7,0-0.8,0.3-0.8,0.8c0,0.9,0,2.4,0,4C40,57.6,44.5,62,50,62
		s10-4.4,10-13.2c0-1.6,0-3.1,0-4C60,44.3,59.9,44,59.2,44"/>
	<g>
		<path class="st2" d="M48.7,49.5c0-1.6,3.3-0.8,4.4,0.3c0.7-1.1,0.3-2.1,0.3-2.1s-1-0.7-2.4-1v-1.5c-1.1-0.4-2.4,0-2.4,0v1.4
			c0,0-2.3,0.4-2.3,2.9c0,3.2,4.7,2.5,4.7,4.6c0,1.5-3.1,0.9-4.7-0.3c-0.5,1.2,0,2.2,0,2.2c1.1,0.5,2.3,0.7,2.3,0.7V58
			c0,0,1.2,0.4,2.4,0v-1.4c0,0,2.6-0.2,2.6-2.5C53.8,51,48.7,51.3,48.7,49.5"/>
		<path class="st2" d="M57.6,44v3.5c0,8.3-3,12-7.6,12s-7.6-3.6-7.6-12V44h-0.8v3.5c0,8.9,3.3,12.9,8.4,12.9s8.4-4,8.4-12.9V44H57.6
			"/>
	</g>
</g>
</svg>
