<?xml version="1.0" encoding="utf-8"?>
<!-- Generator: Adobe Illustrator 22.1.0, SVG Export Plug-In . SVG Version: 6.00 Build 0)  -->
<svg version="1.1" id="Layer_1" xmlns="http://www.w3.org/2000/svg" xmlns:xlink="http://www.w3.org/1999/xlink" x="0px" y="0px"
	 viewBox="0 0 100 100" style="enable-background:new 0 0 100 100;" xml:space="preserve">
<style type="text/css">
	.st0{fill:#42ADE2;}
	.st1{fill:#664E27;}
</style>
<g>
	<path class="st0" d="M64.3,56.5c0,1.1-6.1,1.9-13.7,1.9c-7.5,0-13.7-0.9-13.7-1.9c0-1.1,6.1-1.9,13.7-1.9S64.3,55.4,64.3,56.5"/>
	<path class="st0" d="M55.5,57.9c-1.7,0-3.5,0-5.2,0c1.3-2.8,1.3-6.1,0-8.9c1.7,0,3.5,0,5.2,0C56.8,51.8,56.8,55.1,55.5,57.9"/>
	<path class="st1" d="M55.8,48.5c-0.2,1.7-1.8,4-4.1,3.8c-1.9-0.2-3.8-2.2-6.2-2.5c-2.5-0.3-4.8,1.1-6.7,0.8c-2.6-0.3-3.2-2.9-3-4.6
		c0.4-3,5.2-4.9,10.7-4.2C52,42.4,56.2,45.4,55.8,48.5"/>
</g>
</svg>
