<svg xmlns="http://www.w3.org/2000/svg" viewBox="0 0 100 100">
    <path d="M50.2 54.9c-17.1 0-30.2-7.1-30.2 8.8C20 76.5 36.9 80 49.8 80c15 0 30.2-3.5 30.2-16.3 0-15.9-12.2-8.8-29.8-8.8" fill="#89664c"/>
    <path d="M49.7 38.9c-9.6 0-24.5 1.1-24.5 12.6 0 16.8 49.5 16.8 49.5 0 .1-11.5-14.8-12.6-25-12.6" fill="#9b7861"/>
    <path d="M67 34.7c-4.6-10.3-26.4.3-22.6-12.2.6-1.9.5-2.7-.9-2.4C35.7 21.7 30 29.7 32 36.4c6.4 21.4 41.3 12.3 35-1.7" fill="#a88673"/>
    <path d="M46.8 52.3c0 4-3.2 7.2-7.2 7.2s-7.2-3.2-7.2-7.2 3.2-7.2 7.2-7.2 7.2 3.2 7.2 7.2" fill="#fff"/>
    <circle cx="41.6" cy="52.3" r="3.6" fill="#231f20"/>
    <path d="M67.6 52.3c0 4-3.2 7.2-7.2 7.2s-7.2-3.2-7.2-7.2 3.2-7.2 7.2-7.2c3.9 0 7.2 3.2 7.2 7.2" fill="#fff"/>
    <circle cx="58.4" cy="52.3" r="3.6" fill="#231f20"/>
    <path d="M56 68.6c0 3.3-2.7 6-6 6s-6-2.7-6-6 2.7-6 6-6 6 2.7 6 6" fill="#231f20"/>
</svg>
