<?xml version="1.0" encoding="utf-8"?>
<!-- Generator: Adobe Illustrator 22.1.0, SVG Export Plug-In . SVG Version: 6.00 Build 0)  -->
<svg version="1.1" id="Layer_1" xmlns="http://www.w3.org/2000/svg" xmlns:xlink="http://www.w3.org/1999/xlink" x="0px" y="0px"
	 viewBox="0 0 100 100" style="enable-background:new 0 0 100 100;" xml:space="preserve">
<style type="text/css">
	.st0{fill:#947151;}
	.st1{fill:#EABC92;}
	.st2{fill:#F5D1AC;}
	.st3{fill:#423223;}
	.st4{fill:#3E4347;}
	.st5{fill:#FFFFFF;}
	.st6{fill:#7D644B;}
	.st7{fill:#F15A61;}
	.st8{fill:#BA454B;}
</style>
<g>
	<path class="st0" d="M32.1,64.2C26,63.7,21,56,21,56c0,9.5,8.4,13,12.2,11.7C36.6,66.6,32.1,64.2,32.1,64.2z"/>
	<path class="st1" d="M59.3,74c1.7,2,9.5,0,10.8-2.3c5.1-9.5,0-15.6,0-15.6l-10.8,3.3C59.3,59.5,57.1,71.5,59.3,74"/>
	<path class="st2" d="M52,78.4c1.9,2.2,8.8,2.1,10.8,0c3-3,2.8-16.7,3-23.3L53.1,54C53.1,54,49.6,75.5,52,78.4"/>
	<path class="st1" d="M44.7,74c-1.7,2-9.5,0-10.8-2.3c-5.1-9.5,0-15.6,0-15.6l10.8,3.3C44.7,59.5,47,71.5,44.7,74"/>
	<path class="st2" d="M52.1,78.4c-1.9,2.2-8.8,2.1-10.8,0c-3-3-2.8-16.7-3-23.3L51,54C51,54,54.5,75.5,52.1,78.4"/>
	<path class="st3" d="M52,78.5c-0.3-2.1-0.4-4.2-0.4-6.3s0.1-4.2,0.4-6.3c0.3,2.1,0.4,4.2,0.4,6.3S52.3,76.4,52,78.5"/>
	<path class="st4" d="M52,64.5c-10.2,0-15.4-4-15.4-4S40,69.6,52,69.6s15.4-9.1,15.4-9.1S62.2,64.5,52,64.5"/>
	<path class="st5" d="M49.1,67c0-1.4,0.6-2.5,1.3-2.6c-0.2-0.2-0.5-0.3-0.7-0.3c-0.9,0-1.6,1.3-1.6,2.9c0,1.6,0.7,2.9,1.6,2.9
		c0.3,0,0.5-0.2,0.7-0.4C49.7,69.5,49.1,68.4,49.1,67"/>
	<path class="st2" d="M37.5,61C31.4,57.2,29,42.3,31,35.6c1.5-5,7-12.4,12-14.4c4.2-1.6,13.9-1.6,18.1,0c5,1.9,10.6,9.3,12,14.4
		c2,6.8,0.5,21.6-5.6,25.4C54.7,69,50.3,69,37.5,61"/>
	<path class="st3" d="M27.9,37.1c3.2,6.9,4,7.2,7.1-1c1.6-4.4,0.5-7,2.4-9.8c1.1-1.6,3.5-4.1,3.5-4.1S21.7,24.1,27.9,37.1"/>
	<path class="st0" d="M36,21.9c-4.8,3-15.1,1.8-9,14.8c3.2,6.9,4,7.2,7.1-1c1.6-4.4,0.5-7,2.4-9.8c1.1-1.6,4.4-3.7,4.4-3.7
		S39.4,19.8,36,21.9"/>
	<path class="st3" d="M76.2,37.1c-3.2,6.9-4,7.2-7.1-1c-1.6-4.4-0.5-7-2.4-9.8c-1.1-1.6-3.5-4.1-3.5-4.1S82.4,24.1,76.2,37.1"/>
	<path class="st0" d="M68.1,21.9c4.8,3,15.2,1.8,9.1,14.8c-3.2,6.9-4,7.2-7.1-1c-1.6-4.4-0.5-7-2.4-9.8c-1.1-1.6-4.4-3.7-4.4-3.7
		S64.7,19.8,68.1,21.9"/>
	<path class="st5" d="M39.2,37.2c3,0,5.4,2.3,5.4,5.2s-2.4,5.2-5.4,5.2s-5.4-2.3-5.4-5.2S36.3,37.2,39.2,37.2"/>
	<ellipse class="st4" cx="37.9" cy="42.4" rx="4" ry="3.9"/>
	<path class="st5" d="M70.2,42.4c0,2.9-2.4,5.2-5.4,5.2c-3,0-5.4-2.3-5.4-5.2s2.4-5.2,5.4-5.2C67.8,37.2,70.2,39.5,70.2,42.4"/>
	<ellipse class="st4" cx="66.2" cy="42.4" rx="4" ry="3.9"/>
	<path class="st6" d="M42.8,58.1l4.2,4.2c2.5,2.5,7.7,2.5,10.2,0l4.2-4.2L57,53.8h-9.9L42.8,58.1"/>
	<path class="st7" d="M52,50.1c0,0-4.4,6.1-3.8,9c0.7,4.2,7,4.2,7.7,0C56.4,56.2,52,50.1,52,50.1"/>
	<path class="st8" d="M52,60.7l1-5.9h-1.9L52,60.7"/>
	<path class="st3" d="M47.5,51.8h9v4h-9V51.8z"/>
	<path class="st0" d="M66.3,52.7l-6.4-6.5c-3.9-3.9-11.8-3.9-15.6,0l-6.4,6.5c-1.8,1.8-1.8,4.8,0,6.7c1.8,1.8,4.8,1.8,6.6,0l6.4-6.5
		c0.6-0.6,1.8-0.6,2.4,0l6.4,6.5c1.8,1.8,4.8,1.8,6.6,0C68.1,57.6,68.1,54.6,66.3,52.7"/>
	<g>
		<path class="st4" d="M46.7,46.7c0-2.3,2.4-2.7,5.3-2.7s5.3,0.4,5.3,2.7c0,1.8-4.2,3.4-5.3,3.4C51,50.1,46.7,48.5,46.7,46.7"/>
		<path class="st4" d="M45.1,48.7l-0.9,0.9l0.9,0.9l0.9-0.9L45.1,48.7z"/>
		<path class="st4" d="M43,51.1L42.1,52l0.9,0.9l0.9-0.9L43,51.1z"/>
		<path class="st4" d="M45.8,52l-0.9,0.9l0.9,0.9l0.9-0.9L45.8,52z"/>
		<path class="st4" d="M59,48.7l0.9,0.9L59,50.5l-0.9-0.9L59,48.7z"/>
		<path class="st4" d="M61.1,51.1L62,52l-0.9,0.9L60.2,52L61.1,51.1z"/>
		<path class="st4" d="M58.3,52l0.9,0.9l-0.9,0.9l-0.9-0.9L58.3,52z"/>
	</g>
</g>
</svg>
