<svg xmlns="http://www.w3.org/2000/svg" viewBox="0 0 100 100">
    <path d="M32.1 64.2C26 63.7 21 56 21 56c0 9.5 8.4 13 12.2 11.7 3.4-1.1-1.1-3.5-1.1-3.5z" fill="#947151"/>
    <path d="M59.3 74c1.7 2 9.5 0 10.8-2.3 5.1-9.5 0-15.6 0-15.6l-10.8 3.3c0 .1-2.2 12.1 0 14.6" fill="#eabc92"/>
    <path d="M52 78.4c1.9 2.2 8.8 2.1 10.8 0 3-3 2.8-16.7 3-23.3L53.1 54S49.6 75.5 52 78.4" fill="#f5d1ac"/>
    <path d="M44.7 74c-1.7 2-9.5 0-10.8-2.3-5.1-9.5 0-15.6 0-15.6l10.8 3.3c0 .1 2.3 12.1 0 14.6" fill="#eabc92"/>
    <path d="M52.1 78.4c-1.9 2.2-8.8 2.1-10.8 0-3-3-2.8-16.7-3-23.3L51 54s3.5 21.5 1.1 24.4" fill="#f5d1ac"/>
    <path d="M52 78.5c-.3-2.1-.4-4.2-.4-6.3s.1-4.2.4-6.3c.3 2.1.4 4.2.4 6.3s-.1 4.2-.4 6.3" fill="#423223"/>
    <path d="M52 64.5c-10.2 0-15.4-4-15.4-4S40 69.6 52 69.6s15.4-9.1 15.4-9.1-5.2 4-15.4 4" fill="#3e4347"/>
    <path d="M49.1 67c0-1.4.6-2.5 1.3-2.6-.2-.2-.5-.3-.7-.3-.9 0-1.6 1.3-1.6 2.9 0 1.6.7 2.9 1.6 2.9.3 0 .5-.2.7-.4-.7 0-1.3-1.1-1.3-2.5" fill="#fff"/>
    <path d="M37.5 61C31.4 57.2 29 42.3 31 35.6c1.5-5 7-12.4 12-14.4 4.2-1.6 13.9-1.6 18.1 0 5 1.9 10.6 9.3 12 14.4 2 6.8.5 21.6-5.6 25.4-12.8 8-17.2 8-30 0" fill="#f5d1ac"/>
    <path d="M27.9 37.1c3.2 6.9 4 7.2 7.1-1 1.6-4.4.5-7 2.4-9.8 1.1-1.6 3.5-4.1 3.5-4.1s-19.2 1.9-13 14.9" fill="#423223"/>
    <path d="M36 21.9c-4.8 3-15.1 1.8-9 14.8 3.2 6.9 4 7.2 7.1-1 1.6-4.4.5-7 2.4-9.8 1.1-1.6 4.4-3.7 4.4-3.7s-1.5-2.4-4.9-.3" fill="#947151"/>
    <path d="M76.2 37.1c-3.2 6.9-4 7.2-7.1-1-1.6-4.4-.5-7-2.4-9.8-1.1-1.6-3.5-4.1-3.5-4.1s19.2 1.9 13 14.9" fill="#423223"/>
    <path d="M68.1 21.9c4.8 3 15.2 1.8 9.1 14.8-3.2 6.9-4 7.2-7.1-1-1.6-4.4-.5-7-2.4-9.8-1.1-1.6-4.4-3.7-4.4-3.7s1.4-2.4 4.8-.3" fill="#947151"/>
    <path d="M39.2 37.2c3 0 5.4 2.3 5.4 5.2s-2.4 5.2-5.4 5.2-5.4-2.3-5.4-5.2 2.5-5.2 5.4-5.2" fill="#fff"/>
    <ellipse cx="37.9" cy="42.4" rx="4" ry="3.9" fill="#3e4347"/>
    <path d="M70.2 42.4c0 2.9-2.4 5.2-5.4 5.2-3 0-5.4-2.3-5.4-5.2s2.4-5.2 5.4-5.2c3 0 5.4 2.3 5.4 5.2" fill="#fff"/>
    <ellipse cx="66.2" cy="42.4" rx="4" ry="3.9" fill="#3e4347"/>
    <path d="M42.8 58.1l4.2 4.2c2.5 2.5 7.7 2.5 10.2 0l4.2-4.2-4.4-4.3h-9.9l-4.3 4.3" fill="#7d644b"/>
    <path d="M52 50.1s-4.4 6.1-3.8 9c.7 4.2 7 4.2 7.7 0 .5-2.9-3.9-9-3.9-9" fill="#f15a61"/>
    <path d="M52 60.7l1-5.9h-1.9l.9 5.9" fill="#ba454b"/>
    <path d="M47.5 51.8h9v4h-9v-4z" fill="#423223"/>
    <path d="M66.3 52.7l-6.4-6.5c-3.9-3.9-11.8-3.9-15.6 0l-6.4 6.5c-1.8 1.8-1.8 4.8 0 6.7 1.8 1.8 4.8 1.8 6.6 0l6.4-6.5c.6-.6 1.8-.6 2.4 0l6.4 6.5c1.8 1.8 4.8 1.8 6.6 0 1.8-1.8 1.8-4.8 0-6.7" fill="#947151"/>
    <path d="M46.7 46.7c0-2.3 2.4-2.7 5.3-2.7s5.3.4 5.3 2.7c0 1.8-4.2 3.4-5.3 3.4-1 0-5.3-1.6-5.3-3.4m-1.6 2l-.9.9.9.9.9-.9-.9-.9zM43 51.1l-.9.9.9.9.9-.9-.9-.9zm2.8.9l-.9.9.9.9.9-.9-.9-.9zM59 48.7l.9.9-.9.9-.9-.9.9-.9zm2.1 2.4l.9.9-.9.9-.9-.9.9-.9zm-2.8.9l.9.9-.9.9-.9-.9.9-.9z" fill="#3e4347"/>
</svg>
