<svg xmlns="http://www.w3.org/2000/svg" viewBox="0 0 100 100">
    <path d="M80 55.6C80 71.6 59.1 80 50 80s-30-8.4-30-24.4c0-18.9 12.4-29 26.1-26.4 1.7.3 5.1.7 6.4.4C68 25.3 80 36.2 80 55.6" fill="#e9841a"/>
    <g fill="#ba6b24">
        <path d="M36.2 55.9c0-13.2 4.8-19.2 9.2-25.8-10.1 2-19.8 6.5-19.8 24.9 0 14.3 12.2 22.6 20 24.5-5.4-5.8-9.4-13.7-9.4-23.6M63.6 55.9c0-13.2-6.4-18.8-10.7-25.4 9.8 2 20.8 6.1 20.8 24.5 0 14.3-11.8 22.6-19.3 24.5 5.3-5.8 9.2-13.7 9.2-23.6"/>
        <path d="M55.2 53c0 20.1-5.2 27-5.2 27s-5.2-6.9-5.2-27 5.4-25 5.4-25 5 4.9 5 25"/>
    </g>
    <path d="M42.1 30.9s1.6.9 1.4 2.2c0 0 5.5.8 9.6.4 0 0 1-3-.2-4.2-.4-.4.7-4.8 2.8-6 .7-.4-4.5-4.1-6-2.9-4.3 3.6-4.4 8.9-4.4 8.9-1.9.5-3.2 1.6-3.2 1.6" fill="#83bf4f"/>
    <path d="M43.5 33.1s2.1-1.8 1.8-3.9c0 0-2.2.7-3.1 1.7-.1 0 1.3.8 1.3 2.2" fill="#699635"/>
    <path d="M53.1 33.5s-3.5-5.8.5-10.2c.5-.6 2.5-.3 2.5-.3-1.8 1.6-3.3 5.3-2.4 6.1.9.9 2.9 1.9 3.5 2.4.6.4-2.7.6-4.1 2" fill="#75a843"/>
    <path d="M55.9 23.3c-.7.4-2.6.1-4.3-.8-1.6-.9-2.4-1.9-1.7-2.3.7-.4 2.6-.1 4.3.8 1.6.8 2.4 1.9 1.7 2.3" fill="#adea73"/>
</svg>
