<?xml version="1.0" encoding="utf-8"?>
<!-- Generator: Adobe Illustrator 22.1.0, SVG Export Plug-In . SVG Version: 6.00 Build 0)  -->
<svg version="1.1" id="Layer_1" xmlns="http://www.w3.org/2000/svg" xmlns:xlink="http://www.w3.org/1999/xlink" x="0px" y="0px"
	 viewBox="0 0 100 100" style="enable-background:new 0 0 100 100;" xml:space="preserve">
<style type="text/css">
	.st0{fill:#E9841A;}
	.st1{fill:#BA6B24;}
	.st2{fill:#83BF4F;}
	.st3{fill:#699635;}
	.st4{fill:#75A843;}
	.st5{fill:#ADEA73;}
</style>
<g>
	<path class="st0" d="M80,55.6C80,71.6,59.1,80,50,80s-30-8.4-30-24.4c0-18.9,12.4-29,26.1-26.4c1.7,0.3,5.1,0.7,6.4,0.4
		C68,25.3,80,36.2,80,55.6"/>
	<g>
		<path class="st1" d="M36.2,55.9c0-13.2,4.8-19.2,9.2-25.8c-10.1,2-19.8,6.5-19.8,24.9c0,14.3,12.2,22.6,20,24.5
			C40.2,73.7,36.2,65.8,36.2,55.9"/>
		<path class="st1" d="M63.6,55.9c0-13.2-6.4-18.8-10.7-25.4c9.8,2,20.8,6.1,20.8,24.5c0,14.3-11.8,22.6-19.3,24.5
			C59.7,73.7,63.6,65.8,63.6,55.9"/>
		<path class="st1" d="M55.2,53c0,20.1-5.2,27-5.2,27s-5.2-6.9-5.2-27s5.4-25,5.4-25S55.2,32.9,55.2,53"/>
	</g>
	<path class="st2" d="M42.1,30.9c0,0,1.6,0.9,1.4,2.2c0,0,5.5,0.8,9.6,0.4c0,0,1-3-0.2-4.2c-0.4-0.4,0.7-4.8,2.8-6
		c0.7-0.4-4.5-4.1-6-2.9c-4.3,3.6-4.4,8.9-4.4,8.9C43.4,29.8,42.1,30.9,42.1,30.9"/>
	<path class="st3" d="M43.5,33.1c0,0,2.1-1.8,1.8-3.9c0,0-2.2,0.7-3.1,1.7C42.1,30.9,43.5,31.7,43.5,33.1"/>
	<path class="st4" d="M53.1,33.5c0,0-3.5-5.8,0.5-10.2c0.5-0.6,2.5-0.3,2.5-0.3c-1.8,1.6-3.3,5.3-2.4,6.1c0.9,0.9,2.9,1.9,3.5,2.4
		C57.8,31.9,54.5,32.1,53.1,33.5"/>
	<path class="st5" d="M55.9,23.3c-0.7,0.4-2.6,0.1-4.3-0.8c-1.6-0.9-2.4-1.9-1.7-2.3c0.7-0.4,2.6-0.1,4.3,0.8
		C55.8,21.8,56.6,22.9,55.9,23.3"/>
</g>
</svg>
