<?xml version="1.0" encoding="utf-8"?>
<!-- Generator: Adobe Illustrator 22.1.0, SVG Export Plug-In . SVG Version: 6.00 Build 0)  -->
<svg version="1.1" id="Layer_1" xmlns="http://www.w3.org/2000/svg" xmlns:xlink="http://www.w3.org/1999/xlink" x="0px" y="0px"
	 viewBox="0 0 100 100" style="enable-background:new 0 0 100 100;" xml:space="preserve">
<style type="text/css">
	.st0{fill:#FC97B2;}
	.st1{fill:#A5627A;}
	.st2{fill:#BF7B90;}
</style>
<g>
	<path class="st0" d="M80,55.3c0,17.3-13.4,15.3-30,15.3s-30,2-30-15.3s13.4-25.9,30-25.9S80,38,80,55.3"/>
	<path class="st1" d="M43.9,51.6c0,7.4-3.3,13.4-7.3,13.4c-4.1,0-7.3-6-7.3-13.4s3.3-13.4,7.3-13.4C40.7,38.3,43.9,44.2,43.9,51.6"
		/>
	<ellipse class="st2" cx="37.9" cy="51.6" rx="6.1" ry="12.8"/>
	<path class="st1" d="M70.7,51.6c0,7.4-3.3,13.4-7.3,13.4c-4.1,0-7.3-6-7.3-13.4s3.3-13.4,7.3-13.4C67.4,38.3,70.7,44.2,70.7,51.6"
		/>
	<ellipse class="st2" cx="64.7" cy="51.6" rx="6.1" ry="12.8"/>
</g>
</svg>
