<svg xmlns="http://www.w3.org/2000/svg" viewBox="0 0 100 100">
    <path d="M80 55.3c0 17.3-13.4 15.3-30 15.3s-30 2-30-15.3 13.4-25.9 30-25.9S80 38 80 55.3" fill="#fc97b2"/>
    <path d="M43.9 51.6c0 7.4-3.3 13.4-7.3 13.4-4.1 0-7.3-6-7.3-13.4s3.3-13.4 7.3-13.4c4.1.1 7.3 6 7.3 13.4" fill="#a5627a"/>
    <ellipse cx="37.9" cy="51.6" rx="6.1" ry="12.8" fill="#bf7b90"/>
    <path d="M70.7 51.6c0 7.4-3.3 13.4-7.3 13.4-4.1 0-7.3-6-7.3-13.4s3.3-13.4 7.3-13.4c4 .1 7.3 6 7.3 13.4" fill="#a5627a"/>
    <ellipse cx="64.7" cy="51.6" rx="6.1" ry="12.8" fill="#bf7b90"/>
</svg>
