<svg xmlns="http://www.w3.org/2000/svg" viewBox="0 0 100 100">
    <path d="M53.8 43.2c-2.2 1.1-5.5 1.1-7.7 0-2.3-1.2-5.2-2-8.7-2.3-3.4-.3-10.5-.3-14 1-.4.1-.8.3-1.2.5-.1.1-.2.2-.2.6v.5c0 1-.1.6.6 1 1.4.8 2.2 2.9 2.6 5.8.6 4.2 2.7 6.9 6 8.1 3.1 1.2 6.6 1.1 9.7-.1 1.7-.7 3.2-1.7 4.4-3.5 2.1-3 1.4-4.9 2.5-7.5.9-2.3 3.5-2.3 4.5 0 1.1 2.6.4 4.5 2.5 7.5 1.2 1.7 2.7 2.8 4.4 3.5 3.1 1.2 6.6 1.3 9.7.1 3.4-1.3 5.4-3.9 6-8.1.4-2.9 1.2-5 2.6-5.8.7-.4.6 0 .6-1V43c0-.4 0-.5-.3-.6-.4-.2-.8-.4-1.2-.5-3.6-1.3-10.7-1.3-14-1-3.6.3-6.5 1.1-8.8 2.3" fill="#494949"/>
</svg>
