<?xml version="1.0" encoding="utf-8"?>
<!-- Generator: Adobe Illustrator 22.1.0, SVG Export Plug-In . SVG Version: 6.00 Build 0)  -->
<svg version="1.1" id="Layer_1" xmlns="http://www.w3.org/2000/svg" xmlns:xlink="http://www.w3.org/1999/xlink" x="0px" y="0px"
	 viewBox="0 0 100 100" style="enable-background:new 0 0 100 100;" xml:space="preserve">
<style type="text/css">
	.st0{fill:#494949;}
</style>
<path class="st0" d="M53.8,43.2c-2.2,1.1-5.5,1.1-7.7,0c-2.3-1.2-5.2-2-8.7-2.3c-3.4-0.3-10.5-0.3-14,1c-0.4,0.1-0.8,0.3-1.2,0.5
	C22.1,42.5,22,42.6,22,43v0.5c0,1-0.1,0.6,0.6,1c1.4,0.8,2.2,2.9,2.6,5.8c0.6,4.2,2.7,6.9,6,8.1c3.1,1.2,6.6,1.1,9.7-0.1
	c1.7-0.7,3.2-1.7,4.4-3.5c2.1-3,1.4-4.9,2.5-7.5c0.9-2.3,3.5-2.3,4.5,0c1.1,2.6,0.4,4.5,2.5,7.5c1.2,1.7,2.7,2.8,4.4,3.5
	c3.1,1.2,6.6,1.3,9.7,0.1c3.4-1.3,5.4-3.9,6-8.1c0.4-2.9,1.2-5,2.6-5.8c0.7-0.4,0.6,0,0.6-1V43c0-0.4,0-0.5-0.3-0.6
	c-0.4-0.2-0.8-0.4-1.2-0.5c-3.6-1.3-10.7-1.3-14-1C59,41.2,56.1,42,53.8,43.2"/>
</svg>
