<svg xmlns="http://www.w3.org/2000/svg" viewBox="0 0 100 100">
    <path d="M20.1 79l8.6-3-6.5-3-2.1 6z" fill="#f7b600"/>
    <path d="M45 54.4L32.9 42.2l-2 5.6L45 54.4z" fill="#ffdd7d"/>
    <path d="M30.9 47.8l-2.2 6.3 26.8 12.5 1.3-.4L45 54.4l-14.1-6.6z" fill="#f7b600"/>
    <path d="M26.6 60.4l20 9.3 8.9-3.1-26.8-12.5-2.1 6.3z" fill="#ffdd7d"/>
    <path d="M24.4 66.7l13.2 6.2 9-3.2-20-9.3-2.2 6.3z" fill="#f7b600"/>
    <path d="M24.4 66.7L22.2 73l6.5 3 8.9-3.1-13.2-6.2z" fill="#ffdd7d"/>
    <path d="M50 49.2c6.7 6.6 10.2 14 7.8 16.4-2.5 2.4-9.9-1-16.7-7.7-6.7-6.6-10.2-14-7.8-16.4 2.5-2.4 9.9 1.1 16.7 7.7" fill="#493816"/>
    <path d="M41.6 32.5c-1.6-2.3.1-3.3 2.3-2.9-2.1-2.5-.8-4.3 2.5-3.6 1 .2-.4 1.9-1.3 1.9 2.7 2 1.2 4.2-1.7 3.7 2.6 3.5-1.8 2.6-3.8 2.8-.5 2.6 2.5 5.6 1.5 5.6-2.2 0-5.8-8.3.5-7.5" fill="#42ade2"/>
    <path d="M62.6 37.3c-1.5.7-5.7-5.9-.5-6-3-2.7-2.6-4 1.4-4.1-4.6-4.6 2.7-6.2 3.4-3.8.2.7-2.2-.6-3 .7-.9 1.5 5.6 5.4-1.1 5.1 2.5 2.5 2.6 3.7-1.3 4.1.5.8 2.1 3.6 1.1 4" fill="#ff8736"/>
    <path d="M64.3 52.9l1.5-1.3s1.4 2.1 2.4 2.9c.8-3.6.6-5.7 4.7-3.3-2.3-6.2 1.5-3.9 5.2-2.2-.2-1.6 0-1.4 1.6-1.9 1.4 5.3-2.4 3.7-5.4 2 1.8 4.8-.1 4.5-3.9 2.9-.1 2-.7 4.3-1.9 4.5-1.4.4-4.2-3.6-4.2-3.6" fill="#ed4c5c"/>
    <path d="M53.1 38.1c-1.8 2.4-4.7 3.7-6.8 5.8-2.2 2.2-3.5 8.2-3.5 8.2s.8-6.3 2.9-8.7c1.9-2.2 4.7-3.8 6.2-6.3 2.6-4.6.2-10.6-3.2-14.1.7-.6 1.7-1.4 2.2-2 3.3 4.1 6.1 12 2.2 17.1" fill="#c28fef"/>
    <path d="M56.2 43.2c-2.6 1.9-4.5 4.7-6.3 7.3-1.6 2.3-6.7 5.2-6.7 5.2s4.8-3.3 6.3-5.7c1.8-3 3.6-6.1 6.4-8.3 5.6-4.3 13.7-3.9 20-1.6-.4.9-1.1 2.8-1.1 2.8s-13.3-3.6-18.6.3" fill="#ff8736"/>
    <path d="M67.3 42.7c-1.7 2.2-2.5 4.9-3.8 7.4-1.2 2.3-2.8 4.5-5.1 5.7-2.6 1.3-8.3.9-8.3.9s5.7-.1 8.1-1.7c2.4-1.6 3.7-4.4 4.6-7 1.8-5 4-10.4 9.2-12.6.3.9 1 2.8 1 2.8s-2.9.8-5.7 4.5m-46-10.4l2.8-2.8 2.8 2.8-2.8 2.8-2.8-2.8z" fill="#42ade2"/>
    <path d="M25.2 41.2l2.8-2.8 2.8 2.8-2.7 2.8-2.9-2.8z" fill="#ff8736"/>
    <path d="M32.4 27.8l2.8-2.8 2.8 2.8-2.8 2.8-2.8-2.8z" fill="#ed4c5c"/>
    <path d="M63.3 61.7l2.8-2.8 2.8 2.8-2.8 2.8-2.8-2.8z" fill="#c28fef"/>
    <path d="M57 71.4l2.8-2.8 2.8 2.8-2.8 2.8-2.8-2.8z" fill="#ed4c5c"/>
    <path d="M69.3 73.6l2.8-2.8 2.8 2.8-2.8 2.8-2.8-2.8z" fill="#ff8736"/>
    <path d="M72.1 60.7l2.8-2.8 2.8 2.8-2.7 2.9-2.9-2.9zm-4.7-29.9l2.8-2.8 2.8 2.8-2.8 2.8-2.8-2.8z" fill="#42ade2"/>
    <path d="M37.1 47.8l2.8-2.8 2.8 2.8-2.8 2.8-2.8-2.8z" fill="#ed4c5c"/>
</svg>
