<?xml version="1.0" encoding="utf-8"?>
<!-- Generator: Adobe Illustrator 22.1.0, SVG Export Plug-In . SVG Version: 6.00 Build 0)  -->
<svg version="1.1" id="Layer_1" xmlns="http://www.w3.org/2000/svg" xmlns:xlink="http://www.w3.org/1999/xlink" x="0px" y="0px"
	 viewBox="0 0 100 100" style="enable-background:new 0 0 100 100;" xml:space="preserve">
<style type="text/css">
	.st0{fill:#F7B600;}
	.st1{fill:#FFDD7D;}
	.st2{fill:#493816;}
	.st3{fill:#42ADE2;}
	.st4{fill:#FF8736;}
	.st5{fill:#ED4C5C;}
	.st6{fill:#C28FEF;}
</style>
<g>
	<path class="st0" d="M20.1,79l8.6-3l-6.5-3L20.1,79z"/>
	<path class="st1" d="M45,54.4L32.9,42.2l-2,5.6L45,54.4z"/>
	<path class="st0" d="M30.9,47.8l-2.2,6.3l26.8,12.5l1.3-0.4L45,54.4L30.9,47.8z"/>
	<path class="st1" d="M26.6,60.4l20,9.3l8.9-3.1L28.7,54.1L26.6,60.4z"/>
	<path class="st0" d="M24.4,66.7l13.2,6.2l9-3.2l-20-9.3L24.4,66.7z"/>
	<path class="st1" d="M24.4,66.7L22.2,73l6.5,3l8.9-3.1L24.4,66.7z"/>
	<path class="st2" d="M50,49.2c6.7,6.6,10.2,14,7.8,16.4c-2.5,2.4-9.9-1-16.7-7.7c-6.7-6.6-10.2-14-7.8-16.4
		C35.8,39.1,43.2,42.6,50,49.2"/>
	<path class="st3" d="M41.6,32.5c-1.6-2.3,0.1-3.3,2.3-2.9c-2.1-2.5-0.8-4.3,2.5-3.6c1,0.2-0.4,1.9-1.3,1.9c2.7,2,1.2,4.2-1.7,3.7
		c2.6,3.5-1.8,2.6-3.8,2.8C39.1,37,42.1,40,41.1,40C38.9,40,35.3,31.7,41.6,32.5"/>
	<path class="st4" d="M62.6,37.3c-1.5,0.7-5.7-5.9-0.5-6c-3-2.7-2.6-4,1.4-4.1c-4.6-4.6,2.7-6.2,3.4-3.8c0.2,0.7-2.2-0.6-3,0.7
		c-0.9,1.5,5.6,5.4-1.1,5.1c2.5,2.5,2.6,3.7-1.3,4.1C62,34.1,63.6,36.9,62.6,37.3"/>
	<path class="st5" d="M64.3,52.9l1.5-1.3c0,0,1.4,2.1,2.4,2.9c0.8-3.6,0.6-5.7,4.7-3.3c-2.3-6.2,1.5-3.9,5.2-2.2
		c-0.2-1.6,0-1.4,1.6-1.9c1.4,5.3-2.4,3.7-5.4,2c1.8,4.8-0.1,4.5-3.9,2.9c-0.1,2-0.7,4.3-1.9,4.5C67.1,56.9,64.3,52.9,64.3,52.9"/>
	<path class="st6" d="M53.1,38.1c-1.8,2.4-4.7,3.7-6.8,5.8c-2.2,2.2-3.5,8.2-3.5,8.2s0.8-6.3,2.9-8.7c1.9-2.2,4.7-3.8,6.2-6.3
		c2.6-4.6,0.2-10.6-3.2-14.1c0.7-0.6,1.7-1.4,2.2-2C54.2,25.1,57,33,53.1,38.1"/>
	<path class="st4" d="M56.2,43.2c-2.6,1.9-4.5,4.7-6.3,7.3c-1.6,2.3-6.7,5.2-6.7,5.2s4.8-3.3,6.3-5.7c1.8-3,3.6-6.1,6.4-8.3
		c5.6-4.3,13.7-3.9,20-1.6c-0.4,0.9-1.1,2.8-1.1,2.8S61.5,39.3,56.2,43.2"/>
	<g>
		<path class="st3" d="M67.3,42.7c-1.7,2.2-2.5,4.9-3.8,7.4c-1.2,2.3-2.8,4.5-5.1,5.7c-2.6,1.3-8.3,0.9-8.3,0.9s5.7-0.1,8.1-1.7
			c2.4-1.6,3.7-4.4,4.6-7c1.8-5,4-10.4,9.2-12.6c0.3,0.9,1,2.8,1,2.8S70.1,39,67.3,42.7"/>
		<path class="st3" d="M21.3,32.3l2.8-2.8l2.8,2.8l-2.8,2.8L21.3,32.3z"/>
	</g>
	<path class="st4" d="M25.2,41.2l2.8-2.8l2.8,2.8L28.1,44L25.2,41.2z"/>
	<path class="st5" d="M32.4,27.8l2.8-2.8l2.8,2.8l-2.8,2.8L32.4,27.8z"/>
	<path class="st6" d="M63.3,61.7l2.8-2.8l2.8,2.8l-2.8,2.8L63.3,61.7z"/>
	<path class="st5" d="M57,71.4l2.8-2.8l2.8,2.8l-2.8,2.8L57,71.4z"/>
	<path class="st4" d="M69.3,73.6l2.8-2.8l2.8,2.8l-2.8,2.8L69.3,73.6z"/>
	<g>
		<path class="st3" d="M72.1,60.7l2.8-2.8l2.8,2.8L75,63.6L72.1,60.7z"/>
		<path class="st3" d="M67.4,30.8l2.8-2.8l2.8,2.8l-2.8,2.8L67.4,30.8z"/>
	</g>
	<path class="st5" d="M37.1,47.8l2.8-2.8l2.8,2.8l-2.8,2.8L37.1,47.8z"/>
</g>
</svg>
