<svg xmlns="http://www.w3.org/2000/svg" viewBox="0 0 100 100">
    <path d="M46.9 27.2l-1.6 11.2c1-.3 2.1-.5 3.1-1l-1.5-10.2" fill="#ff9c70"/>
    <path d="M44.3 45.1c1.7-.2 3.5-.4 5.1-.8l-1-6.8c-1 .3-2.1.5-3.1 1l-1 6.6" fill="#ffe76e"/>
    <path d="M43.2 51.3l7.2-.1-1.1-7.2c-1.7.2-3.5.5-5.1.8l-1 6.5" fill="#d3ff75"/>
    <path d="M42.2 57.4l9.1 1.3-1.1-7.4H43l-.8 6.1" fill="#59ffba"/>
    <path d="M41.3 63.1c3.7 1.1 7.5 2.1 11.1 3l-1.1-7.8-9.1-1.3-.9 6.1" fill="#73deff"/>
    <path d="M52.5 66.3c-3.7-1.1-7.5-2.1-11.1-3L40 73.1h13.6l-1.1-6.8" fill="#8387f7"/>
</svg>
