<?xml version="1.0" encoding="utf-8"?>
<!-- Generator: Adobe Illustrator 22.1.0, SVG Export Plug-In . SVG Version: 6.00 Build 0)  -->
<svg version="1.1" id="Layer_1" xmlns="http://www.w3.org/2000/svg" xmlns:xlink="http://www.w3.org/1999/xlink" x="0px" y="0px"
	 viewBox="0 0 100 100" style="enable-background:new 0 0 100 100;" xml:space="preserve">
<style type="text/css">
	.st0{fill:#FF9C70;}
	.st1{fill:#FFE76E;}
	.st2{fill:#D3FF75;}
	.st3{fill:#59FFBA;}
	.st4{fill:#73DEFF;}
	.st5{fill:#8387F7;}
	.st6{fill:#FF639B;}
	.st7{fill:#FCA9C9;}
	.st8{fill:#B2C1C0;}
	.st9{fill:#EFF6F7;}
	.st10{fill:#3E4347;}
</style>
<g>
	<path class="st0" d="M20,20l4.4,5.9c0.3-0.6,0.7-1.2,1-1.9L20,20"/>
	<path class="st1" d="M27.1,29.5c0.7-0.9,1.4-1.8,2-2.7l-3.6-2.7c-0.3,0.6-0.7,1.2-1,1.9L27.1,29.5"/>
	<path class="st2" d="M29.6,32.9c1.1-1.1,2.2-2.2,3.3-3.3l-3.8-2.8c-0.7,0.9-1.4,1.8-2,2.7L29.6,32.9"/>
	<path class="st3" d="M32.1,36.2c1.6-1.2,3.2-2.4,4.8-3.6L33,29.7c-1.1,1.1-2.2,2.2-3.3,3.3L32.1,36.2"/>
	<path class="st4" d="M34.4,39.3c2.2-1.2,4.4-2.5,6.5-3.7l-4.1-3.1c-1.6,1.2-3.2,2.4-4.8,3.6L34.4,39.3"/>
	<path class="st5" d="M41,35.6c-2.2,1.2-4.4,2.5-6.5,3.7l3.9,5.2l4.9-4.9l1.4-1.4L41,35.6"/>
	<g>
		<path class="st6" d="M50.3,35.8c0,0,4.2-7.1,22.2-8.8C54.2,25,49,31.6,49,31.6S49.7,34.3,50.3,35.8"/>
		<path class="st6" d="M49.1,36.8c0,0,9-6.3,25.1-5.2l-14.7,7.1c0,0,8.4,1.2,19.8,1.9l-11.9,3.9c0,0,4.2,2.6,11.8,5.1l-8,1.2
			c0,0,6.3,0.4,8.7,6.2l-5.5-0.4c0,0,2.5,5.9,5.5,9.3l-5.2-3c0,0,3,5.1,5.2,10.1l-5.4-1.6c2.5,5.9,4.8,8.4,4.8,8.4
			C65.8,75.8,49.1,36.8,49.1,36.8"/>
	</g>
	<path class="st7" d="M47.4,38.4c0,0,11.9-5.4,28.7-1.6l-18.2,3.6c0,0,12.2,0.6,19.6,5.8H65.8c0,0,7.3,1.7,10.6,7.1l-6.9-0.7
		c0,0,7.5,3.2,10.5,9.6l-7.3-3.8c0,0,5.8,3.1,5,13.4L73.5,63c0,0,1.6,10.7,4.8,13.2l-4.4-0.1c2,2.2,3,3.9,3,3.9H66.1L47.4,38.4"/>
	<path class="st8" d="M46.2,37c0,0-0.6-4.4,2.6-10.9c0,0,4.1,5.1,5.1,14.2L46.2,37"/>
	<path class="st9" d="M28.4,71.9c1.5,1,5-3,9-3.7c15-2.8,12.2-8.6,12.2-8.6c4.1,5.1-2.2,17.1-5.8,20.4h30.4
		C74,40,49.1,36.8,49.1,36.8c-0.8-7.2-7-10.8-7-10.8c-1.9,4.5-1,12.5-1,12.5C38,43.9,22.2,58.8,20.4,61c-1.8,2.2,3.8,8.8,3.8,8.8
		C25.7,70,27.6,71.3,28.4,71.9"/>
	<g>
		<path class="st8" d="M33.1,70c0.8-0.6,2.7-1.8,5.6-2.4c2-0.4,3.9-1,5.7-1.8c1.8-0.8,3.4-1.9,4.4-3.6c0.9-1.6,0.9-3.7,0.2-5.5
			c1.1,1.6,1.5,3.9,0.5,5.9c-0.9,2-2.8,3.3-4.7,4.1c-1.9,0.9-3.9,1.4-6,1.7C36.4,68.7,34.1,69.6,33.1,70"/>
		<path class="st8" d="M24.2,63.8c-0.5,0.4-1.8,0.6-2.2,0.1c-0.4-0.5,0.3-1.6,0.8-1.9c0.5-0.4,1.2-0.3,1.6,0.2
			C24.8,62.8,24.7,63.5,24.2,63.8"/>
		<path class="st8" d="M33.9,61.1c-0.1,2.3-1.3,4.6-3.1,6.2c-0.9,0.8-2,1.5-3.1,1.9c-1.1,0.4-2.4,0.6-3.6,0.6c2.3-0.7,4.4-1.7,6-3.2
			c0.8-0.7,1.5-1.6,2.2-2.5C32.9,63.2,33.5,62.2,33.9,61.1"/>
	</g>
	<path class="st10" d="M34.4,53.2c0,0,0.9-0.7,1.7-0.5c0,0-1.1,1.1-0.3,2.9c0,0,0.9-2.1,2.5-2.2c0,0-1.1,1.5,0.3,2.9
		c0,0,0.3-2.1,2.3-2.8c0,0-0.3,1.1,0.7,2.5c0,0-0.3-1.9,1.1-2.9c1.4-0.9,3-1.5,3.7-3.8c0,0-3.4,3.5-8.1,2.5
		C37.2,51.4,35.4,51.1,34.4,53.2"/>
	<g>
		<path class="st8" d="M43.4,39.6c-1.7-2.2-0.6-8.4-0.4-9.3c0.2-1,5.8,2.8,4.3,9.5c-0.1,0.6-0.4,1.2-1,1.2s-0.6-1.7-0.3-2.8
			c0.3-1.1-0.4,0-0.6,0.7c-0.3,0.8-0.5,0.2-0.4-0.6c0.1-0.8-0.6,0.8-0.4,1.7C44.7,40.9,44.6,41.1,43.4,39.6"/>
		<path class="st8" d="M23,60.1c-0.5,0.3-0.4,0.5,0,0.3c0.5-0.2,2.7-0.7,2.9,1.6c0,0,0.1,1.1,0.4,0C26.6,61,26,58.3,23,60.1"/>
	</g>
	<g>
		<path class="st6" d="M41,36c0,0,2.7,11,13.5,16.6C54.5,52.6,27.9,46.8,41,36"/>
		<path class="st6" d="M49.1,36.8c0,0,6.8,18,20.8,23C56.1,46.6,59.5,39.2,48.5,34C48.5,34,48.5,35.3,49.1,36.8"/>
	</g>
	<path class="st8" d="M49.7,59.6c0,0,6.3,4.1,1.7,20.4h-7.5C43.9,80,53.2,68.8,49.7,59.6"/>
</g>
</svg>
