<?xml version="1.0" encoding="utf-8"?>
<!-- Generator: Adobe Illustrator 22.1.0, SVG Export Plug-In . SVG Version: 6.00 Build 0)  -->
<svg version="1.1" id="Layer_1" xmlns="http://www.w3.org/2000/svg" xmlns:xlink="http://www.w3.org/1999/xlink" x="0px" y="0px"
	 viewBox="0 0 100 100" style="enable-background:new 0 0 100 100;" xml:space="preserve">
<style type="text/css">
	.st0{fill:#467591;}
</style>
<path class="st0" d="M56.5,58.2c0.1-0.2,0.2-0.3,0.2-0.5l0-2.8c0-0.4-0.3-0.7-0.8-0.7l-6.4-0.1l7-8.8c0.1-0.2,0.2-0.3,0.1-0.5l0-2.5
	c0-0.4-0.3-0.7-0.8-0.7l-11.6,0c-0.4,0-0.7,0.3-0.7,0.8l0,2.8c0,0.4,0.3,0.7,0.8,0.7l6.1,0l-7,8.7c-0.1,0.2-0.2,0.3-0.1,0.5l0,2.8
	c0,0.2,0.1,0.4,0.3,0.5c0,0.1,0.2,0.1,0.3,0.2c0.1,0,0.1,0,0.2,0L56,58.5C56.2,58.4,56.4,58.4,56.5,58.2"/>
</svg>
