<svg xmlns="http://www.w3.org/2000/svg" viewBox="0 0 100 100">
    <g fill="#696a6b">
        <path d="M59.9 42.9l-4 4c-.2.2-.2.4 0 .6l9.6 11.4c.1.1.4.2.5 0l5.9-5.9c.2-.2.2-.4 0-.6l-11.4-9.6c-.2-.1-.4-.1-.6.1m9.8 9.7c.1.1.1.4 0 .5L66 56.7c-.1.1-.4.1-.5 0L62.3 53l3.6-3.6 3.8 3.2"/>
        <path d="M59.6 41h-3.2c-.2 0-.4.2-.4.4v2c0-.2-.2-.4-.4-.4h-3.2c-.2 0-.4.2-.4.4v-2c0-.2-.2-.4-.4-.4h-3.2c-.2 0-.4.2-.4.4v2c0-.2-.2-.4-.4-.4h-3.2c-.2 0-.4.2-.4.4v-2c0-.2-.2-.4-.4-.4h-3.2c-.2 0-.4.2-.4.4v2c0-.2-.2-.4-.4-.4h-3.2c-.2 0-.4.2-.4.4v-2c0-.2-.2-.4-.4-.4h-3.2c-.2 0-.4.2-.4.4v2c0-.2-.2-.4-.4-.4h-3.2c-.2 0-.4.2-.4.4v5.3c0 .2.2.4.4.4h3.2c.2 0 .4-.2.4-.4v-2c0 .2.2.4.4.4h3.2c.2 0 .4-.2.4-.4v2c0 .2.2.4.4.4h3.2c.2 0 .4-.2.4-.4v-2c0 .2.2.4.4.4h3.2c.2 0 .4-.2.4-.4v2c0 .2.2.4.4.4h3.2c.2 0 .4-.2.4-.4v-2c0 .2.2.4.4.4h3.2c.2 0 .4-.2.4-.4v2c0 .2.2.4.4.4h3.2c.2 0 .4-.2.4-.4v-2c0 .2.2.4.4.4h3.2c.2 0 .4-.2.4-.4v-5.3c0-.2-.2-.4-.4-.4"/>
    </g>
</svg>
