<?xml version="1.0" encoding="utf-8"?>
<!-- Generator: Adobe Illustrator 22.1.0, SVG Export Plug-In . SVG Version: 6.00 Build 0)  -->
<svg version="1.1" id="Layer_1" xmlns="http://www.w3.org/2000/svg" xmlns:xlink="http://www.w3.org/1999/xlink" x="0px" y="0px"
	 viewBox="0 0 100 100" style="enable-background:new 0 0 100 100;" xml:space="preserve">
<style type="text/css">
	.st0{fill:#696A6B;}
</style>
<g>
	<path class="st0" d="M59.9,42.9l-4,4c-0.2,0.2-0.2,0.4,0,0.6l9.6,11.4c0.1,0.1,0.4,0.2,0.5,0l5.9-5.9c0.2-0.2,0.2-0.4,0-0.6
		l-11.4-9.6C60.3,42.7,60.1,42.7,59.9,42.9 M69.7,52.6c0.1,0.1,0.1,0.4,0,0.5L66,56.7c-0.1,0.1-0.4,0.1-0.5,0L62.3,53l3.6-3.6
		L69.7,52.6"/>
	<path class="st0" d="M59.6,41h-3.2c-0.2,0-0.4,0.2-0.4,0.4v2c0-0.2-0.2-0.4-0.4-0.4h-3.2c-0.2,0-0.4,0.2-0.4,0.4v-2
		c0-0.2-0.2-0.4-0.4-0.4h-3.2c-0.2,0-0.4,0.2-0.4,0.4v2c0-0.2-0.2-0.4-0.4-0.4h-3.2c-0.2,0-0.4,0.2-0.4,0.4v-2
		c0-0.2-0.2-0.4-0.4-0.4h-3.2c-0.2,0-0.4,0.2-0.4,0.4v2c0-0.2-0.2-0.4-0.4-0.4h-3.2c-0.2,0-0.4,0.2-0.4,0.4v-2
		c0-0.2-0.2-0.4-0.4-0.4h-3.2c-0.2,0-0.4,0.2-0.4,0.4v2c0-0.2-0.2-0.4-0.4-0.4h-3.2c-0.2,0-0.4,0.2-0.4,0.4v5.3
		c0,0.2,0.2,0.4,0.4,0.4h3.2c0.2,0,0.4-0.2,0.4-0.4v-2c0,0.2,0.2,0.4,0.4,0.4h3.2c0.2,0,0.4-0.2,0.4-0.4v2c0,0.2,0.2,0.4,0.4,0.4
		h3.2c0.2,0,0.4-0.2,0.4-0.4v-2c0,0.2,0.2,0.4,0.4,0.4h3.2c0.2,0,0.4-0.2,0.4-0.4v2c0,0.2,0.2,0.4,0.4,0.4h3.2
		c0.2,0,0.4-0.2,0.4-0.4v-2c0,0.2,0.2,0.4,0.4,0.4h3.2c0.2,0,0.4-0.2,0.4-0.4v2c0,0.2,0.2,0.4,0.4,0.4h3.2c0.2,0,0.4-0.2,0.4-0.4v-2
		c0,0.2,0.2,0.4,0.4,0.4h3.2c0.2,0,0.4-0.2,0.4-0.4v-5.3C60,41.2,59.8,41,59.6,41"/>
</g>
</svg>
